<svg width="342" height="58" viewBox="0 0 342 58" fill="none" xmlns="http://www.w3.org/2000/svg">
<path d="M52.5682 11.6485C52.6149 13.6191 52.1414 15.583 51.9847 17.9504C53.3051 16.57 57.4296 12.7855 57.2595 8.49751C57.1295 5.31989 55.2523 2.56572 53.7285 0.841865C52.7049 -0.318487 50.8777 -0.271806 49.9074 0.935226C48.4204 2.77912 46.6099 5.71334 46.7432 8.93099C46.8866 12.4187 50.2542 16.2699 51.878 17.947C51.808 15.6964 51.2978 13.6624 51.3612 11.6451C51.3645 11.4951 51.5713 6.50358 51.998 6.49024C52.4682 6.47691 52.5615 11.4818 52.5682 11.6451V11.6485Z" fill="#056E7A"/>
<path d="M0 55.3595V6.09453C0.260074 6.07453 0.493473 6.04118 0.723538 6.04118C9.33264 6.04118 17.9417 6.02785 26.5542 6.04452C29.3583 6.05119 32.0024 6.67471 34.2897 8.39523C37.6807 10.9493 39.3245 14.3804 39.2644 18.6083C39.2078 22.8763 37.3172 26.164 33.7929 28.5213C33.1994 28.9181 32.5192 29.1815 31.879 29.505C31.6756 29.6083 31.4689 29.7117 31.1488 29.8717C31.4956 30.0018 31.709 30.0918 31.929 30.1585C36.9838 31.6723 40.228 36.7238 40.5648 40.9518C40.8582 44.6562 39.998 47.9906 37.574 50.8414C35.37 53.4322 32.5392 54.896 29.1449 55.2161C28.218 55.3028 27.2844 55.3495 26.3541 55.3495C17.9051 55.3595 9.45601 55.3561 1.00362 55.3561H0V55.3595ZM6.65188 49.4943C7.06867 49.4943 7.38209 49.4943 7.69551 49.4943C13.6372 49.4943 19.5755 49.501 25.5172 49.4877C26.1541 49.4877 26.8009 49.4477 27.4211 49.3176C30.4686 48.6774 32.5159 46.8235 33.5195 43.9227C34.5131 41.0418 34.0263 38.3443 32.0257 36.0003C30.2919 33.973 28.0279 33.0494 25.3905 33.0427C19.4222 33.026 13.4571 33.036 7.48878 33.0427C7.21204 33.0427 6.93529 33.106 6.65188 33.1394V49.4977V49.4943ZM6.65855 27.4143C6.97197 27.4343 7.18203 27.4577 7.39209 27.4577C13.1504 27.4577 18.9087 27.471 24.6636 27.4443C25.4272 27.441 26.2174 27.3343 26.9443 27.1076C30.2586 26.0606 32.2858 23.8132 32.6526 20.3388C32.9893 17.1546 31.6056 14.7105 28.9082 13.0133C27.5545 12.163 26.024 11.9363 24.4636 11.933C18.812 11.9196 13.1604 11.9263 7.51212 11.933C7.23205 11.933 6.95197 11.9863 6.65855 12.0163V27.421V27.4143Z" fill="#056E7A"/>
<path d="M151.793 6.07751V11.8659C151.41 11.8859 151.073 11.9193 150.736 11.9193C145.751 11.9226 140.767 11.9126 135.782 11.9293C134.985 11.9293 134.175 11.966 133.401 12.1293C130.497 12.7395 128.363 15.0202 128.246 17.9711C128.103 21.5622 128.213 25.1599 128.213 28.8677C129.197 28.9544 130.17 28.9011 131.144 28.9077C132.157 28.9178 133.171 28.9077 134.181 28.9077H146.095C147.078 28.9077 148.059 28.9077 149.019 28.9077C149.239 29.5613 149.272 33.8259 149.066 34.7328C148.725 34.7495 148.362 34.7829 147.995 34.7829C141.783 34.7829 135.575 34.7829 129.363 34.7895C128.997 34.7895 128.633 34.8296 128.176 34.8562V55.3091H121.588C121.571 55.0223 121.541 54.7656 121.541 54.5055C121.541 42.5419 121.528 30.5749 121.544 18.6113C121.554 13.0096 124.815 8.44156 129.947 6.73104C131.401 6.24756 132.908 6.04416 134.428 6.04083C139.973 6.01749 145.515 6.03083 151.059 6.03416C151.269 6.03416 151.48 6.05416 151.793 6.07083V6.07751Z" fill="#056E7A"/>
<path d="M105.55 35.8531C105.543 47.3332 96.0672 55.8958 85.5342 55.9191C75.2113 55.9391 65.4519 47.65 65.4552 35.8397C65.4552 24.703 74.4111 15.8103 85.5075 15.8203C96.8274 15.827 105.55 24.9998 105.547 35.8564L105.55 35.8531ZM100.705 35.8764C100.588 27.1871 93.7032 20.7151 85.5509 20.6918C77.2052 20.6685 70.3199 27.3238 70.3232 35.8564C70.3266 44.9158 77.8387 51.0177 85.4509 51.0443C93.003 51.071 100.565 45.0892 100.705 35.8764Z" fill="#209698"/>
<path d="M342 37.5904C342 48.9072 332.701 57.6265 321.974 57.6465C311.575 57.6632 301.939 49.354 301.905 37.6371C301.875 26.1837 311.175 17.531 321.968 17.541C333.017 17.551 341.983 26.5204 341.997 37.5904H342ZM321.928 52.7417C329.536 52.8984 337.135 46.7299 337.129 37.5771C337.122 28.7311 329.927 22.4225 321.978 22.4158C313.862 22.4092 306.757 28.8845 306.777 37.6071C306.797 46.6799 314.302 52.8684 321.928 52.7417Z" fill="#209698"/>
<path d="M186.743 19.508H193.101C193.125 19.7681 193.168 19.9981 193.168 20.2282C193.168 27.1036 193.201 33.9824 193.148 40.8578C193.091 48.3101 188.137 54.0118 181.118 55.6523C176.667 56.6926 172.259 56.4325 168.098 54.3919C163.33 52.0512 160.535 48.21 159.775 42.9351C159.642 42.0148 159.595 41.0779 159.592 40.1476C159.575 33.5923 159.585 27.0336 159.585 20.4783V19.5147C161.716 19.4246 163.78 19.4913 165.924 19.468C165.944 19.8648 165.974 20.2015 165.974 20.5383C165.974 26.8535 165.974 33.1721 165.977 39.4874C165.977 40.9578 166.054 42.4249 166.55 43.8254C167.981 47.8666 170.888 50.0839 175.09 50.6574C177.53 50.9909 179.821 50.4807 181.901 49.1937C184.816 47.3898 186.406 44.7356 186.683 41.3146C186.733 40.7044 186.743 40.0909 186.743 39.4774C186.746 33.2155 186.743 26.9502 186.743 20.6883V19.508Z" fill="#056E7A"/>
<path d="M259.533 19.508H265.892C265.915 19.7714 265.955 20.0015 265.955 20.2315C265.955 27.107 265.989 33.9857 265.935 40.8611C265.875 48.3167 260.917 54.0151 253.902 55.6523C249.451 56.6926 245.043 56.4325 240.881 54.3886C236.113 52.0478 233.319 48.2034 232.559 42.9318C232.426 42.0115 232.379 41.0745 232.376 40.1442C232.359 33.5889 232.369 27.0303 232.369 20.4749V19.5147C234.503 19.4246 236.564 19.4913 238.711 19.468C238.731 19.8681 238.761 20.2049 238.761 20.5383C238.761 26.8536 238.761 33.1721 238.764 39.4874C238.764 40.9578 238.841 42.4249 239.338 43.8254C240.768 47.8666 243.676 50.0873 247.88 50.6541C250.438 51.0009 252.822 50.434 254.962 49.0203C257.69 47.2197 259.187 44.6489 259.463 41.388C259.517 40.7511 259.53 40.1109 259.53 39.4707C259.533 33.2088 259.53 26.9436 259.53 20.6817V19.5047L259.533 19.508Z" fill="#056E7A"/>
<path d="M205.695 24.957H199.52V19.492C201.537 19.4387 203.548 19.502 205.625 19.4553C205.758 18.6751 205.678 17.9349 205.692 17.2013C205.705 16.4544 205.692 15.7075 205.692 14.964V10.5293H212.007C212.013 11.5129 212.023 12.4866 212.027 13.4602C212.03 14.4472 212.027 15.4308 212.027 16.4177V19.4487H224.347C224.403 21.3092 224.373 23.0764 224.37 24.9403H212.087C212.063 25.2871 212.03 25.5439 212.03 25.8006C212.03 32.0892 212.017 38.3777 212.043 44.6663C212.043 45.3732 212.16 46.1101 212.37 46.787C212.934 48.6108 214.514 49.8079 216.428 49.8512C218.692 49.9046 220.959 49.8779 223.223 49.8912C223.533 49.8912 223.843 49.9312 224.193 49.9546V55.3029C223.933 55.3262 223.727 55.3595 223.52 55.3595C220.829 55.3629 218.135 55.3762 215.444 55.3562C214.271 55.3462 213.107 55.1828 211.987 54.806C208.426 53.6057 206.465 51.0582 205.862 47.4171C205.728 46.6069 205.698 45.7733 205.698 44.9497C205.685 38.6612 205.692 32.3726 205.692 26.084V24.9603L205.695 24.957Z" fill="#056E7A"/>
<path d="M282.573 55.3226H276.288C276.271 55.0325 276.241 54.7724 276.241 54.5156C276.241 46.0998 276.241 37.6805 276.241 29.2647C276.241 28.1643 276.405 27.094 276.698 26.0337C277.589 22.8194 280.139 20.1452 284.36 19.6317C287.385 19.265 290.429 19.525 293.463 19.485C293.513 19.485 293.563 19.5184 293.61 19.5384C293.786 20.1052 293.816 24.0331 293.63 24.9133C293.37 24.9267 293.086 24.9534 292.803 24.9534C291.126 24.9567 289.445 24.95 287.768 24.96C287.291 24.96 286.801 24.96 286.338 25.0534C284.074 25.5102 282.74 27.1407 282.593 29.5881C282.57 29.9615 282.577 30.335 282.577 30.7051C282.577 38.5375 282.577 46.3665 282.577 54.1989C282.577 54.5423 282.577 54.8858 282.577 55.3192L282.573 55.3226Z" fill="#056E7A"/>
<path d="M48.9739 19.5117H55.1323C55.289 20.1486 55.3357 54.2723 55.1789 55.3026H49.0072C48.8438 54.689 48.7971 20.522 48.9705 19.5117H48.9739Z" fill="#056E7A"/>
</svg>
