<svg width="64" height="64" viewBox="0 0 64 64" fill="none" xmlns="http://www.w3.org/2000/svg">
<path fill-rule="evenodd" clip-rule="evenodd" d="M12.1617 26.8574C12.3445 26.4936 12.6641 26.217 13.0505 26.0884C13.4368 25.9598 13.8584 25.9897 14.2228 26.1715L31.994 35.0524L49.7622 26.1684C49.9429 26.076 50.1402 26.0204 50.3426 26.0046C50.545 25.9889 50.7484 26.0134 50.9413 26.0766C51.1342 26.1399 51.3126 26.2407 51.4664 26.3733C51.6201 26.5059 51.7461 26.6675 51.837 26.849C51.9279 27.0305 51.9821 27.2282 51.9962 27.4307C52.0104 27.6332 51.9844 27.8365 51.9196 28.0288C51.8548 28.2212 51.7526 28.3989 51.6189 28.5516C51.4851 28.7043 51.3225 28.829 51.1403 28.9185L32.6831 38.1471C32.4692 38.2543 32.2333 38.3101 31.994 38.3101C31.7548 38.3101 31.5188 38.2543 31.305 38.1471L12.8477 28.9185C12.4839 28.7357 12.2073 28.4161 12.0787 28.0298C11.9501 27.6434 11.98 27.2218 12.1617 26.8574Z" fill="#0A6E7E"/>
</svg>
