<svg width="444" height="606" viewBox="0 0 444 606" fill="none" xmlns="http://www.w3.org/2000/svg">
<g clip-path="url(#clip0_577_2)">
<path d="M223.15 160.34V61.4901C223.15 60.9201 222.77 59.6201 219.32 59.6201C216.32 59.6201 215.74 60.9201 215.74 61.4901L215.41 188.05H223.23V170.93L223.15 160.34Z" fill="#239899"/>
<path d="M194.7 93.8401V50.7201L181.37 37.3901C181.898 36.1583 182.164 34.8301 182.15 33.4901C182.148 31.3429 181.44 29.256 180.135 27.5513C178.829 25.8466 176.999 24.619 174.926 24.0577C172.854 23.4965 170.654 23.633 168.667 24.446C166.68 25.259 165.015 26.7035 163.93 28.5564C162.845 30.4093 162.4 32.5678 162.664 34.6987C162.928 36.8296 163.885 38.8146 165.389 40.3472C166.893 41.8799 168.859 42.875 170.985 43.1792C173.11 43.4833 175.277 43.0795 177.15 42.0301L188.5 53.3901V97.3901L208.21 117.1L208.26 107.41L194.7 93.8401Z" fill="#239899"/>
<path d="M216.63 471.6V501.22C216.63 502.42 217.98 503.4 219.63 503.4C221.29 503.4 222.63 502.4 222.63 501.22V471.59C222.63 469.36 218.43 468.53 217.02 470.51C216.781 470.825 216.645 471.205 216.63 471.6Z" fill="#239899"/>
<path d="M219.63 510.37C224.048 510.37 227.63 506.788 227.63 502.37C227.63 497.952 224.048 494.37 219.63 494.37C215.212 494.37 211.63 497.952 211.63 502.37C211.63 506.788 215.212 510.37 219.63 510.37Z" fill="#239899"/>
<path d="M195.4 153.45C199.669 153.45 203.13 149.989 203.13 145.72C203.13 141.451 199.669 137.99 195.4 137.99C191.131 137.99 187.67 141.451 187.67 145.72C187.67 149.989 191.131 153.45 195.4 153.45Z" fill="#239899"/>
<path d="M243.48 153.45C247.749 153.45 251.21 149.989 251.21 145.72C251.21 141.451 247.749 137.99 243.48 137.99C239.211 137.99 235.75 141.451 235.75 145.72C235.75 149.989 239.211 153.45 243.48 153.45Z" fill="#239899"/>
<path d="M125.2 155.88L132.04 162.72L130.98 163.78L153.28 186.08L157.52 181.84L135.22 159.49L134.15 160.6L127.31 153.76C128.525 151.94 129.061 149.751 128.825 147.576C128.589 145.401 127.596 143.378 126.02 141.86C124.763 140.72 123.209 139.958 121.537 139.663C119.866 139.368 118.145 139.552 116.573 140.193C115.001 140.835 113.643 141.907 112.655 143.288C111.667 144.668 111.09 146.299 110.989 147.994C110.889 149.688 111.269 151.376 112.088 152.864C112.906 154.351 114.127 155.577 115.612 156.399C117.097 157.222 118.784 157.608 120.479 157.512C122.174 157.417 123.807 156.844 125.19 155.86L125.2 155.88Z" fill="#239899" stroke="#239899" stroke-linecap="square" stroke-linejoin="bevel"/>
<path d="M147.5 451.66L115.89 483.73C115.56 483.673 115.225 483.643 114.89 483.64C113.7 483.622 112.531 483.958 111.532 484.607C110.534 485.255 109.751 486.186 109.283 487.28C108.815 488.375 108.683 489.584 108.905 490.754C109.126 491.924 109.69 493.001 110.525 493.849C111.361 494.698 112.43 495.278 113.596 495.517C114.762 495.756 115.973 495.642 117.075 495.191C118.176 494.74 119.119 493.971 119.782 492.982C120.446 491.994 120.8 490.83 120.8 489.64C120.796 489.304 120.766 488.97 120.71 488.64L150.29 458.64H180.98V451.64L147.5 451.66Z" fill="#239899"/>
<path d="M217.52 462.17V248.49L166.07 197.05H131.73L98.86 164.17L95.22 170.87L127.75 203.39H161.6L208.78 250.57V459.11L186.98 480.91L186.88 500.91C186.04 501.773 185.479 502.87 185.27 504.056C185.062 505.243 185.215 506.465 185.711 507.563C186.206 508.661 187.021 509.584 188.049 510.213C189.077 510.842 190.27 511.147 191.473 511.088C192.676 511.029 193.834 510.609 194.796 509.883C195.757 509.157 196.478 508.158 196.863 507.017C197.249 505.875 197.283 504.644 196.959 503.484C196.636 502.323 195.971 501.287 195.05 500.51V484.61L217.52 462.17Z" fill="#239899"/>
<path d="M291.77 451.66L323.38 483.73C323.71 483.673 324.045 483.643 324.38 483.64C325.57 483.622 326.739 483.958 327.738 484.607C328.736 485.255 329.519 486.186 329.987 487.28C330.455 488.375 330.587 489.584 330.366 490.754C330.144 491.924 329.58 493.001 328.745 493.849C327.909 494.698 326.84 495.278 325.674 495.517C324.508 495.756 323.297 495.642 322.195 495.191C321.094 494.74 320.151 493.971 319.488 492.982C318.824 491.994 318.47 490.83 318.47 489.64C318.469 489.304 318.499 488.969 318.56 488.64L288.97 458.64H258.27V451.64L291.77 451.66Z" fill="#239899"/>
<path d="M236.72 294.37L265.32 265.77C265.627 265.457 265.992 265.208 266.395 265.036C266.799 264.865 267.232 264.774 267.67 264.77H293.35C293.788 264.768 294.222 264.679 294.626 264.507C295.029 264.335 295.394 264.085 295.7 263.77L319.46 240.01C320.081 239.38 320.925 239.02 321.81 239.01H358.27C359.155 239 359.999 238.641 360.62 238.01L398.05 200.69C398.354 200.376 398.717 200.126 399.119 199.954C399.521 199.783 399.953 199.693 400.39 199.69H420.79C423.7 199.69 424.51 201.13 424.51 203.06C424.51 204.42 424.43 205.86 423.88 206.47C423.525 206.843 423.096 207.138 422.621 207.336C422.146 207.534 421.635 207.631 421.12 207.62H404.68C404.242 207.624 403.809 207.715 403.405 207.886C403.002 208.058 402.637 208.307 402.33 208.62L364.15 246.78C363.843 247.094 363.478 247.343 363.075 247.515C362.671 247.686 362.238 247.777 361.8 247.78H324.96C324.117 247.782 323.305 248.104 322.69 248.68L299.2 270.68C298.581 271.251 297.771 271.568 296.93 271.57H271.15C270.711 271.573 270.278 271.662 269.874 271.834C269.471 272.006 269.106 272.256 268.8 272.57L244.88 296.49C244.566 296.796 244.315 297.161 244.143 297.565C243.972 297.968 243.882 298.402 243.88 298.84V317.23C243.879 317.888 244.073 318.531 244.438 319.077C244.803 319.624 245.322 320.051 245.929 320.302C246.536 320.554 247.204 320.62 247.849 320.491C248.494 320.363 249.086 320.046 249.55 319.58L255.55 313.58C255.856 313.266 256.221 313.016 256.624 312.844C257.028 312.672 257.461 312.583 257.9 312.58H282.9C283.348 312.585 283.793 312.498 284.207 312.326C284.621 312.154 284.996 311.901 285.31 311.58L308.99 286.58C309.577 285.964 310.377 285.596 311.227 285.551C312.077 285.506 312.912 285.789 313.56 286.34L313.89 286.62C314.241 286.914 314.528 287.276 314.733 287.686C314.938 288.095 315.056 288.542 315.081 288.999C315.105 289.456 315.035 289.913 314.875 290.342C314.715 290.77 314.468 291.161 314.15 291.49L299.74 306.77C297.74 308.88 288.96 320.49 285.38 320.17H260.45C260.013 320.174 259.582 320.265 259.18 320.437C258.778 320.608 258.415 320.858 258.11 321.17L245.02 334.26C244.707 334.565 244.458 334.929 244.286 335.33C244.114 335.732 244.024 336.164 244.02 336.6V437.16C244.019 437.634 244.12 438.101 244.315 438.533C244.51 438.964 244.794 439.348 245.15 439.66L300.62 488.23C300.976 488.543 301.26 488.927 301.455 489.358C301.65 489.789 301.751 490.257 301.75 490.73V500.4C302.748 501.18 303.474 502.254 303.824 503.471C304.174 504.688 304.13 505.984 303.698 507.174C303.267 508.364 302.47 509.388 301.422 510.098C300.374 510.807 299.128 511.168 297.862 511.126C296.597 511.085 295.377 510.645 294.377 509.868C293.377 509.092 292.649 508.019 292.296 506.803C291.942 505.587 291.983 504.291 292.411 503.1C292.839 501.908 293.634 500.883 294.68 500.17V494.09C294.683 493.615 294.584 493.145 294.389 492.712C294.194 492.279 293.908 491.893 293.55 491.58L236.85 442.05C236.491 441.74 236.203 441.357 236.007 440.925C235.81 440.494 235.709 440.025 235.71 439.55V296.71C235.715 296.273 235.807 295.841 235.981 295.439C236.154 295.038 236.405 294.674 236.72 294.37Z" fill="#239899"/>
<path d="M79.4401 138.4C80.8002 138.664 82.0795 139.243 83.1748 140.092C84.2701 140.94 85.1509 142.034 85.7463 143.285C86.3417 144.536 86.635 145.909 86.6027 147.295C86.5703 148.68 86.2132 150.038 85.5601 151.26L99.1501 164.49L95.2101 170.88L80.5601 156.4C79.6401 155.53 79.2501 155.94 77.6801 155.97C76.1701 156.054 74.6664 155.718 73.3368 154.997C72.0071 154.277 70.9038 153.201 70.1501 151.89C66.2001 144.49 72.2301 137.07 79.4401 138.4Z" fill="#239899"/>
<path d="M318.71 289.31C323.128 289.31 326.71 285.728 326.71 281.31C326.71 276.891 323.128 273.31 318.71 273.31C314.292 273.31 310.71 276.891 310.71 281.31C310.71 285.728 314.292 289.31 318.71 289.31Z" stroke="#239899" stroke-width="4" stroke-miterlimit="10"/>
<path d="M172.891 249.002C171.719 247.83 169.821 247.829 168.652 248.998C167.482 250.168 167.484 252.066 168.655 253.238L192.654 277.237C193.826 278.408 195.724 278.41 196.894 277.24C198.063 276.071 198.062 274.173 196.89 273.001L172.891 249.002Z" fill="#239899"/>
<path d="M245.894 277.238L269.893 253.239C271.065 252.067 271.066 250.169 269.897 248.999C268.727 247.83 266.829 247.831 265.658 249.003L241.658 273.002C240.487 274.174 240.485 276.072 241.655 277.241C242.824 278.411 244.722 278.409 245.894 277.238Z" fill="#239899"/>
<path d="M154.43 252.15C161.693 252.15 167.58 246.262 167.58 239C167.58 231.737 161.693 225.85 154.43 225.85C147.167 225.85 141.28 231.737 141.28 239C141.28 246.262 147.167 252.15 154.43 252.15Z" stroke="#239899" stroke-width="4" stroke-miterlimit="10"/>
<path d="M144.411 230.827L122.912 220.159L120.245 225.534L141.744 236.201L144.411 230.827Z" fill="#239899"/>
<path d="M121.47 289.54C125.888 289.54 129.47 285.958 129.47 281.54C129.47 277.122 125.888 273.54 121.47 273.54C117.052 273.54 113.47 277.122 113.47 281.54C113.47 285.958 117.052 289.54 121.47 289.54Z" stroke="#239899" stroke-width="4" stroke-miterlimit="10"/>
<path d="M110.52 231.32C117.783 231.32 123.67 225.432 123.67 218.17C123.67 210.907 117.783 205.02 110.52 205.02C103.258 205.02 97.3701 210.907 97.3701 218.17C97.3701 225.432 103.258 231.32 110.52 231.32Z" stroke="#239899" stroke-width="4" stroke-miterlimit="10"/>
<path d="M99.1117 208.701L83.5232 199.701L80.5232 204.897L96.1117 213.897L99.1117 208.701Z" fill="#239899"/>
<path d="M76.54 205.04C80.0304 205.04 82.86 202.211 82.86 198.72C82.86 195.23 80.0304 192.4 76.54 192.4C73.0495 192.4 70.22 195.23 70.22 198.72C70.22 202.211 73.0495 205.04 76.54 205.04Z" stroke="#239899" stroke-width="2" stroke-miterlimit="10" stroke-linecap="round"/>
<path d="M326.46 276.3L327.63 283.71C337.09 282.18 335.18 282.53 344.63 280.99L361.17 277.99C361.937 279.034 362.974 279.85 364.17 280.35C365.302 280.838 366.539 281.028 367.766 280.904C368.992 280.78 370.166 280.345 371.177 279.64C372.188 278.935 373.002 277.983 373.542 276.876C374.083 275.768 374.331 274.541 374.265 273.31C374.198 272.08 373.819 270.886 373.162 269.843C372.505 268.8 371.593 267.942 370.512 267.35C369.431 266.759 368.217 266.452 366.985 266.461C365.752 266.47 364.543 266.793 363.47 267.4C362.006 268.166 360.867 269.433 360.26 270.97L326.46 276.3Z" fill="#239899"/>
<path d="M124.24 117.35C128.553 117.35 132.05 113.854 132.05 109.54C132.05 105.227 128.553 101.73 124.24 101.73C119.927 101.73 116.43 105.227 116.43 109.54C116.43 113.854 119.927 117.35 124.24 117.35Z" fill="#239899"/>
<path d="M315.03 117.35C319.343 117.35 322.84 113.854 322.84 109.54C322.84 105.227 319.343 101.73 315.03 101.73C310.717 101.73 307.22 105.227 307.22 109.54C307.22 113.854 310.717 117.35 315.03 117.35Z" fill="#239899"/>
<path d="M147.62 451.66H103.45C102.798 450.456 101.754 449.512 100.492 448.984C99.2293 448.455 97.8242 448.374 96.5095 448.754C95.1947 449.134 94.0494 449.952 93.2634 451.073C92.4774 452.193 92.098 453.548 92.1881 454.914C92.2782 456.279 92.8325 457.573 93.7589 458.58C94.6853 459.588 95.9282 460.248 97.2815 460.452C98.6348 460.656 100.017 460.391 101.199 459.701C102.381 459.011 103.292 457.938 103.78 456.66H147.62V451.66Z" fill="#239899"/>
<path d="M290.15 451.66H334.35C335.002 450.456 336.046 449.512 337.308 448.984C338.571 448.455 339.976 448.374 341.29 448.754C342.605 449.134 343.751 449.952 344.537 451.073C345.323 452.193 345.702 453.548 345.612 454.914C345.522 456.279 344.968 457.573 344.041 458.58C343.115 459.588 341.872 460.248 340.518 460.452C339.165 460.656 337.783 460.391 336.601 459.701C335.419 459.011 334.508 457.938 334.02 456.66H290.15V451.66Z" fill="#239899"/>
<path d="M132.35 75.7104C141.054 75.7104 148.11 68.6544 148.11 59.9504C148.11 51.2464 141.054 44.1904 132.35 44.1904C123.646 44.1904 116.59 51.2464 116.59 59.9504C116.59 68.6544 123.646 75.7104 132.35 75.7104Z" stroke="#239899" stroke-width="3" stroke-miterlimit="10"/>
<path d="M132.23 71.1399C138.228 71.1399 143.09 66.2777 143.09 60.2799C143.09 54.2821 138.228 49.4199 132.23 49.4199C126.232 49.4199 121.37 54.2821 121.37 60.2799C121.37 66.2777 126.232 71.1399 132.23 71.1399Z" fill="#239899"/>
<path d="M309.78 75.7104C318.484 75.7104 325.54 68.6544 325.54 59.9504C325.54 51.2464 318.484 44.1904 309.78 44.1904C301.076 44.1904 294.02 51.2464 294.02 59.9504C294.02 68.6544 301.076 75.7104 309.78 75.7104Z" stroke="#239899" stroke-width="3" stroke-miterlimit="10"/>
<path d="M309.89 71.1399C315.888 71.1399 320.75 66.2777 320.75 60.2799C320.75 54.2821 315.888 49.4199 309.89 49.4199C303.892 49.4199 299.03 54.2821 299.03 60.2799C299.03 66.2777 303.892 71.1399 309.89 71.1399Z" fill="#239899"/>
<path d="M284.02 99.7402C284.43 114.02 283.94 126.2 283.92 142.17L254.15 171.87L259.28 177.87L291.9 144.49V99.7502C290.32 99.7202 285.59 99.7702 284.02 99.7402Z" fill="#239899"/>
<path d="M245.52 94.0901V50.9701L258.86 37.6401C257.933 35.5228 257.788 33.1451 258.452 30.931C259.115 28.7169 260.543 26.8105 262.482 25.5519C264.421 24.2933 266.743 23.7643 269.036 24.0592C271.328 24.3542 273.441 25.454 274.998 27.1624C276.555 28.8708 277.454 31.0767 277.535 33.3866C277.617 35.6965 276.875 37.9602 275.442 39.7738C274.009 41.5874 271.978 42.833 269.712 43.2884C267.446 43.7438 265.092 43.3794 263.07 42.2601L251.72 53.6201V97.6201L232.01 117.33L231.96 107.64L245.52 94.0901Z" fill="#239899"/>
<path d="M402.15 317.56C399.544 316.076 396.522 315.492 393.551 315.901C390.581 316.31 387.828 317.687 385.72 319.82L341.45 294.54L313.15 302.25C312.204 302.515 311.403 303.145 310.922 304.001C310.441 304.857 310.32 305.87 310.585 306.815C310.85 307.761 311.48 308.562 312.336 309.043C313.192 309.524 314.204 309.645 315.15 309.38L339.93 302.62L382.04 326.7C381.548 329.156 381.744 331.701 382.606 334.053C383.468 336.405 384.963 338.474 386.925 340.031C388.887 341.588 391.241 342.573 393.727 342.879C396.214 343.184 398.736 342.797 401.017 341.76C403.297 340.724 405.248 339.078 406.653 337.004C408.058 334.93 408.863 332.509 408.981 330.007C409.098 327.504 408.522 325.018 407.317 322.822C406.112 320.626 404.324 318.805 402.15 317.56ZM401.95 333.49C401.192 334.818 400.058 335.892 398.69 336.576C397.322 337.26 395.782 337.522 394.265 337.331C392.748 337.139 391.322 336.501 390.167 335.499C389.013 334.497 388.181 333.174 387.778 331.699C387.375 330.224 387.418 328.662 387.903 327.212C388.388 325.762 389.291 324.488 390.5 323.551C391.709 322.614 393.168 322.057 394.694 321.95C396.219 321.843 397.742 322.191 399.07 322.95C400.844 323.972 402.14 325.655 402.674 327.631C403.208 329.607 402.937 331.714 401.92 333.49H401.95Z" fill="#239899"/>
<path d="M34.1501 161.13C38.2855 163.779 42.5728 166.183 46.9901 168.33C47.1094 168.388 47.2077 168.481 47.2714 168.598C47.3352 168.714 47.3611 168.847 47.3457 168.979C47.3304 169.111 47.2744 169.235 47.1856 169.333C47.0968 169.432 46.9795 169.501 46.8501 169.53C40.8501 170.91 28.3701 173.67 19.8501 167.95C13.1701 163.46 9.56006 155.95 7.69006 150.16C7.35498 149.129 7.25417 148.037 7.39498 146.962C7.53578 145.888 7.91465 144.859 8.50395 143.949C9.09324 143.04 9.8781 142.274 10.8013 141.706C11.7244 141.139 12.7626 140.785 13.8401 140.67C20.0401 139.98 28.6801 140.17 35.4501 144.67C42.4501 149.4 46.4501 160.67 48.2901 167.16C48.3277 167.289 48.3237 167.426 48.2787 167.553C48.2337 167.68 48.1498 167.789 48.0391 167.866C47.9284 167.942 47.7965 167.982 47.662 167.979C47.5275 167.976 47.3974 167.931 47.2901 167.85C43.2722 165.018 39.1135 162.391 34.8301 159.98C34.6776 159.889 34.4955 159.864 34.3239 159.908C34.1523 159.952 34.0052 160.062 33.9151 160.215C33.8249 160.367 33.799 160.549 33.8431 160.721C33.8871 160.892 33.9976 161.039 34.1501 161.13Z" fill="#239899"/>
<path d="M181.52 130.12C184.088 130.12 186.17 128.038 186.17 125.47C186.17 122.902 184.088 120.82 181.52 120.82C178.952 120.82 176.87 122.902 176.87 125.47C176.87 128.038 178.952 130.12 181.52 130.12Z" stroke="#239899" stroke-width="2" stroke-miterlimit="10"/>
<path d="M125.63 304.75L97.32 297.04L53.08 322.32C50.7831 319.995 47.7261 318.574 44.4678 318.317C41.2095 318.06 37.9674 318.984 35.3343 320.92C32.7012 322.856 30.8529 325.676 30.1271 328.863C29.4014 332.049 29.8467 335.391 31.3818 338.277C32.9168 341.162 35.439 343.399 38.4874 344.578C41.5357 345.757 44.9066 345.8 47.9839 344.698C51.0611 343.597 53.6392 341.425 55.247 338.579C56.8547 335.734 57.3847 332.404 56.74 329.2L98.85 305.12L123.63 311.88C124.576 312.145 125.588 312.024 126.444 311.543C127.3 311.062 127.93 310.261 128.195 309.315C128.46 308.37 128.339 307.357 127.858 306.501C127.377 305.645 126.576 305.015 125.63 304.75ZM47.4 338.87C46.0723 339.628 44.5499 339.975 43.0251 339.867C41.5003 339.759 40.0416 339.202 38.8334 338.266C37.6253 337.329 36.7219 336.056 36.2374 334.606C35.753 333.156 35.7093 331.595 36.1119 330.12C36.5144 328.646 37.3452 327.324 38.4991 326.321C39.6529 325.318 41.0782 324.681 42.5946 324.488C44.111 324.295 45.6505 324.556 47.0184 325.238C48.3864 325.921 49.5214 326.993 50.28 328.32C50.784 329.202 51.1093 330.174 51.2374 331.182C51.3654 332.189 51.2936 333.212 51.0262 334.192C50.7587 335.172 50.3008 336.089 49.6786 336.892C49.0564 337.694 48.2821 338.367 47.4 338.87Z" fill="#239899"/>
<path d="M218.53 30.8701C218.455 35.7784 218.669 40.6869 219.17 45.5701C219.181 45.7019 219.151 45.8338 219.085 45.9482C219.019 46.0627 218.919 46.1543 218.8 46.2108C218.68 46.2673 218.546 46.286 218.416 46.2644C218.286 46.2429 218.165 46.1821 218.07 46.0901C213.73 41.7101 204.83 32.5501 205.2 22.2801C205.5 14.2301 210.01 7.2001 213.92 2.5701C214.621 1.74408 215.498 1.08477 216.486 0.64013C217.474 0.19549 218.549 -0.0232998 219.632 -0.000312201C220.715 0.0226754 221.78 0.286862 222.748 0.773018C223.717 1.25917 224.564 1.95507 225.23 2.8101C229.08 7.7201 233.46 15.1701 233.16 23.3201C232.84 31.8001 225.36 41.1201 220.79 46.0801C220.7 46.1781 220.582 46.2457 220.452 46.2735C220.322 46.3013 220.186 46.2878 220.064 46.235C219.942 46.1823 219.839 46.0927 219.771 45.9789C219.702 45.8652 219.67 45.7327 219.68 45.6001C219.974 40.6922 220.021 35.7727 219.82 30.8601C219.799 30.703 219.722 30.5589 219.602 30.4549C219.482 30.3509 219.329 30.2942 219.17 30.2954C219.012 30.2967 218.859 30.3557 218.742 30.4616C218.624 30.5674 218.548 30.7127 218.53 30.8701Z" fill="#239899"/>
<path d="M407.67 289.26C402.764 289.382 397.856 289.211 392.97 288.75C392.839 288.738 392.708 288.767 392.594 288.832C392.48 288.898 392.389 288.997 392.333 289.116C392.277 289.235 392.259 289.368 392.282 289.498C392.305 289.627 392.367 289.747 392.46 289.84C396.87 294.15 406.1 302.98 416.37 302.53C424.37 302.17 431.37 297.6 436.01 293.65C436.829 292.942 437.48 292.061 437.916 291.07C438.352 290.079 438.562 289.003 438.53 287.921C438.499 286.839 438.226 285.778 437.733 284.814C437.24 283.85 436.539 283.009 435.68 282.35C430.74 278.54 423.25 274.21 415.1 274.58C406.63 274.96 397.36 282.52 392.45 287.12C392.351 287.21 392.283 287.329 392.255 287.461C392.228 287.592 392.242 287.728 392.296 287.851C392.35 287.974 392.441 288.076 392.557 288.144C392.672 288.212 392.806 288.242 392.94 288.23C397.843 287.895 402.759 287.812 407.67 287.98C407.84 287.98 408.002 288.047 408.123 288.167C408.243 288.287 408.31 288.45 408.31 288.62C408.31 288.79 408.243 288.952 408.123 289.072C408.002 289.192 407.84 289.26 407.67 289.26Z" fill="#239899"/>
<path d="M412.32 245.18C407.411 245.303 402.498 245.129 397.61 244.66C397.479 244.651 397.349 244.682 397.236 244.749C397.123 244.816 397.033 244.916 396.978 245.035C396.923 245.154 396.905 245.287 396.927 245.416C396.949 245.546 397.009 245.665 397.1 245.76C401.52 250.07 410.74 258.9 421.01 258.45C429.01 258.09 436.01 253.52 440.65 249.57C441.471 248.863 442.123 247.982 442.56 246.991C442.997 246 443.208 244.924 443.176 243.841C443.144 242.758 442.872 241.697 442.377 240.733C441.883 239.769 441.181 238.927 440.32 238.27C435.38 234.46 427.9 230.13 419.74 230.5C411.27 230.88 402.01 238.44 397.09 243.04C396.991 243.13 396.923 243.249 396.895 243.38C396.868 243.512 396.882 243.648 396.936 243.771C396.99 243.893 397.081 243.996 397.197 244.064C397.313 244.132 397.446 244.162 397.58 244.15C402.483 243.815 407.399 243.732 412.31 243.9C412.394 243.899 412.477 243.915 412.555 243.947C412.633 243.978 412.704 244.025 412.764 244.084C412.824 244.143 412.872 244.213 412.904 244.29C412.937 244.368 412.954 244.451 412.955 244.535C412.956 244.619 412.94 244.702 412.908 244.78C412.877 244.858 412.83 244.929 412.771 244.989C412.712 245.049 412.642 245.096 412.565 245.129C412.487 245.162 412.404 245.179 412.32 245.18Z" fill="#239899"/>
<path d="M220.82 461.91V248.21L272.27 196.77H306.61L339.48 163.89L343.12 170.6L310.59 203.13H276.74L229.56 250.31V458.85L251.36 480.65L251.46 500.65C252.3 501.513 252.861 502.609 253.07 503.796C253.278 504.983 253.125 506.204 252.629 507.303C252.134 508.401 251.319 509.324 250.291 509.953C249.264 510.582 248.07 510.886 246.867 510.827C245.664 510.768 244.506 510.349 243.544 509.623C242.583 508.896 241.862 507.898 241.477 506.757C241.091 505.615 241.057 504.384 241.381 503.224C241.704 502.063 242.369 501.027 243.29 500.25V484.35L220.82 461.91Z" fill="#239899"/>
<path d="M358.9 138.14C357.54 138.405 356.261 138.984 355.166 139.833C354.071 140.681 353.189 141.774 352.593 143.025C351.997 144.275 351.703 145.648 351.733 147.033C351.764 148.419 352.119 149.777 352.77 151L339.15 164.2L343.09 170.6L357.74 156.11C358.65 155.24 359.05 155.65 360.62 155.68C362.13 155.765 363.634 155.428 364.963 154.707C366.293 153.987 367.396 152.911 368.15 151.6C372.15 144.23 366.15 136.81 358.9 138.14Z" fill="#239899"/>
<path d="M354.31 96.4298C350.912 99.9752 347.306 103.314 343.51 106.43C343.41 106.514 343.337 106.627 343.304 106.754C343.27 106.881 343.275 107.015 343.32 107.138C343.365 107.261 343.446 107.368 343.554 107.443C343.661 107.519 343.789 107.559 343.92 107.56C350.09 107.56 362.86 107.28 369.83 99.7298C375.28 93.8098 377.03 85.6398 377.52 79.5998C377.604 78.5199 377.447 77.4347 377.06 76.4232C376.672 75.4117 376.064 74.4993 375.28 73.7522C374.495 73.0052 373.554 72.4424 372.525 72.1046C371.496 71.7669 370.404 71.6628 369.33 71.7998C363.13 72.5798 354.77 74.7998 349.25 80.7998C343.5 87.0398 342.25 98.9298 342 105.66C341.997 105.791 342.034 105.921 342.106 106.03C342.179 106.14 342.283 106.224 342.406 106.272C342.528 106.32 342.662 106.33 342.79 106.299C342.918 106.268 343.033 106.198 343.12 106.1C346.366 102.389 349.8 98.8478 353.41 95.4898C353.535 95.3704 353.702 95.3055 353.874 95.3092C354.047 95.313 354.211 95.3851 354.33 95.5098C354.449 95.6344 354.514 95.8014 354.511 95.9739C354.507 96.1465 354.435 96.3104 354.31 96.4298Z" fill="#239899"/>
<path d="M341.15 349.18C338.541 345.02 336.18 340.709 334.08 336.27C334.024 336.151 333.931 336.052 333.816 335.987C333.701 335.922 333.569 335.894 333.438 335.907C333.306 335.92 333.182 335.973 333.082 336.06C332.982 336.147 332.912 336.262 332.88 336.39C331.43 342.39 328.55 354.83 334.18 363.39C338.6 370.13 346.1 373.81 351.84 375.75C352.867 376.095 353.957 376.207 355.033 376.077C356.108 375.947 357.141 375.579 358.056 375C358.971 374.42 359.745 373.643 360.322 372.727C360.899 371.81 361.263 370.776 361.39 369.7C362.14 363.5 362.05 354.86 357.57 348.04C352.91 340.94 341.69 336.84 335.21 334.96C335.08 334.919 334.941 334.921 334.812 334.965C334.683 335.008 334.572 335.092 334.493 335.204C334.415 335.315 334.375 335.449 334.378 335.585C334.381 335.721 334.427 335.852 334.51 335.96C337.309 340 339.895 344.182 342.26 348.49C342.351 348.637 342.381 348.815 342.341 348.984C342.302 349.152 342.197 349.299 342.05 349.39C341.903 349.482 341.725 349.511 341.557 349.472C341.388 349.432 341.242 349.327 341.15 349.18Z" fill="#239899"/>
<path d="M254.15 171.87L219.88 206.14L219.17 206.84L218.4 206.07L184.6 172.28C184.143 171.799 183.561 171.453 182.92 171.28V171.15L179.54 178.15L214.7 213.31L215 214.04V230.77C215 231.768 215.396 232.724 216.101 233.429C216.806 234.134 217.763 234.53 218.76 234.53C219.603 234.525 220.421 234.236 221.08 233.71C221.714 233.412 222.251 232.94 222.628 232.348C223.005 231.757 223.207 231.071 223.21 230.37V214.04C223.333 213.857 223.474 213.686 223.63 213.53L259.28 177.88L254.15 171.87Z" fill="#239899"/>
<path d="M284.28 250.06C291.542 250.06 297.43 244.172 297.43 236.91C297.43 229.647 291.542 223.76 284.28 223.76C277.017 223.76 271.13 229.647 271.13 236.91C271.13 244.172 277.017 250.06 284.28 250.06Z" stroke="#239899" stroke-width="4" stroke-miterlimit="10"/>
<path d="M296.943 234.125L318.442 223.458L315.775 218.083L294.276 228.751L296.943 234.125Z" fill="#239899"/>
<path d="M328.18 229.23C335.443 229.23 341.33 223.342 341.33 216.08C341.33 208.817 335.443 202.93 328.18 202.93C320.917 202.93 315.03 208.817 315.03 216.08C315.03 223.342 320.917 229.23 328.18 229.23Z" stroke="#239899" stroke-width="4" stroke-miterlimit="10"/>
<path d="M342.603 211.81L358.192 202.81L355.192 197.613L339.603 206.613L342.603 211.81Z" fill="#239899"/>
<path d="M362.17 202.95C365.66 202.95 368.49 200.12 368.49 196.63C368.49 193.139 365.66 190.31 362.17 190.31C358.68 190.31 355.85 193.139 355.85 196.63C355.85 200.12 358.68 202.95 362.17 202.95Z" stroke="#239899" stroke-width="2" stroke-miterlimit="10" stroke-linecap="round"/>
<path d="M315.15 156.55L308.32 163.39L309.38 164.45L287.07 186.76L282.84 182.49L305.15 160.21L306.21 161.27L313.04 154.43C311.83 152.61 311.297 150.424 311.532 148.251C311.768 146.079 312.758 144.058 314.33 142.54C316.018 140.852 318.308 139.903 320.695 139.903C323.082 139.903 325.372 140.852 327.06 142.54C328.748 144.228 329.697 146.517 329.697 148.905C329.697 151.292 328.748 153.582 327.06 155.27C325.54 156.845 323.514 157.837 321.337 158.07C319.16 158.304 316.971 157.766 315.15 156.55Z" fill="#239899" stroke="#239899" stroke-linecap="square" stroke-linejoin="bevel"/>
<path d="M82.0001 96.4298C85.3989 99.9776 89.0088 103.317 92.81 106.43C92.9111 106.515 92.9835 106.629 93.0172 106.756C93.0509 106.884 93.0443 107.019 92.9983 107.143C92.9523 107.267 92.8692 107.373 92.7603 107.448C92.6514 107.522 92.5221 107.562 92.39 107.56C86.23 107.56 73.46 107.28 66.49 99.7298C61.03 93.8098 59.28 85.6398 58.8 79.5998C58.7156 78.5199 58.8728 77.4347 59.2603 76.4232C59.6478 75.4117 60.2559 74.4993 61.0403 73.7522C61.8246 73.0052 62.7656 72.4424 63.7948 72.1046C64.824 71.7669 65.9155 71.6628 66.99 71.7998C73.18 72.5798 81.54 74.7998 87.07 80.7998C92.82 87.0398 94.07 98.9298 94.32 105.66C94.3261 105.794 94.2901 105.926 94.2171 106.038C94.1441 106.15 94.0377 106.237 93.9129 106.285C93.7882 106.334 93.6513 106.342 93.5217 106.309C93.392 106.276 93.276 106.202 93.19 106.1C89.9474 102.389 86.5162 98.848 82.91 95.4898C82.7854 95.3691 82.6179 95.3029 82.4444 95.3057C82.271 95.3085 82.1057 95.3801 81.9851 95.5048C81.8644 95.6294 81.7982 95.7969 81.801 95.9704C81.8038 96.1439 81.8754 96.3091 82.0001 96.4298Z" fill="#239899"/>
<path d="M157.75 103.14C157.34 117.42 157.83 129.6 157.85 145.57L187.68 175.27L182.55 181.27L149.88 147.89V103.15C151.45 103.12 156.15 103.17 157.75 103.14Z" fill="#239899"/>
<path d="M258.68 130.12C261.248 130.12 263.33 128.038 263.33 125.47C263.33 122.902 261.248 120.82 258.68 120.82C256.112 120.82 254.03 122.902 254.03 125.47C254.03 128.038 256.112 130.12 258.68 130.12Z" stroke="#239899" stroke-width="2" stroke-miterlimit="10"/>
<path d="M297.25 349.18C294.634 345.018 292.263 340.708 290.15 336.27C290.091 336.152 289.998 336.054 289.883 335.99C289.767 335.926 289.635 335.899 289.503 335.912C289.372 335.925 289.248 335.977 289.147 336.063C289.046 336.148 288.974 336.262 288.94 336.39C287.5 342.39 284.61 354.83 290.24 363.39C294.66 370.13 302.17 373.81 307.9 375.75C308.927 376.095 310.018 376.206 311.094 376.077C312.17 375.947 313.204 375.579 314.119 374.999C315.035 374.42 315.81 373.643 316.388 372.727C316.966 371.81 317.332 370.776 317.46 369.7C318.21 363.5 318.11 354.86 313.63 348.04C308.97 340.94 297.75 336.84 291.28 334.96C291.151 334.923 291.013 334.927 290.886 334.971C290.759 335.016 290.649 335.099 290.571 335.208C290.493 335.318 290.451 335.449 290.451 335.584C290.451 335.718 290.492 335.85 290.57 335.96C293.382 339.996 295.979 344.179 298.35 348.49C298.441 348.636 298.471 348.812 298.433 348.98C298.394 349.148 298.291 349.293 298.145 349.385C297.999 349.476 297.823 349.506 297.655 349.468C297.487 349.429 297.341 349.326 297.25 349.18Z" fill="#239899"/>
<path d="M202.4 294.49L173.8 265.89C173.495 265.577 173.132 265.328 172.73 265.156C172.328 264.985 171.897 264.894 171.46 264.89H145.77C144.885 264.88 144.041 264.521 143.42 263.89L119.66 240.13C119.354 239.816 118.989 239.565 118.586 239.394C118.182 239.222 117.749 239.132 117.31 239.13H80.8601C80.4219 239.126 79.9887 239.036 79.5854 238.864C79.1822 238.693 78.8167 238.443 78.5101 238.13L41.0801 200.7C40.7735 200.387 40.4081 200.138 40.0048 199.966C39.6015 199.794 39.1684 199.704 38.7301 199.7H18.3401C15.4201 199.7 14.6201 201.13 14.6201 203.07C14.6201 204.42 14.6901 205.87 15.2501 206.48C15.6068 206.85 16.0361 207.142 16.5111 207.338C16.986 207.535 17.4964 207.631 18.0101 207.62H34.4501C34.8868 207.624 35.3184 207.715 35.7201 207.886C36.1217 208.058 36.4853 208.307 36.7901 208.62L74.9701 246.8C75.2749 247.113 75.6386 247.362 76.0402 247.534C76.4418 247.706 76.8734 247.796 77.3101 247.8H114.15C114.994 247.801 115.805 248.123 116.42 248.7L139.91 270.7C140.523 271.281 141.336 271.604 142.18 271.6H167.96C168.845 271.61 169.69 271.97 170.31 272.6L194.23 296.52C194.861 297.141 195.22 297.986 195.23 298.87V317.27C195.229 317.927 195.033 318.568 194.668 319.113C194.302 319.659 193.784 320.084 193.177 320.334C192.57 320.584 191.902 320.649 191.259 320.52C190.615 320.392 190.024 320.075 189.56 319.61L183.56 313.61C183.255 313.297 182.892 313.048 182.49 312.876C182.088 312.705 181.657 312.614 181.22 312.61H156.22C155.772 312.616 155.326 312.53 154.912 312.359C154.498 312.187 154.123 311.932 153.81 311.61L130.12 286.61C129.533 285.993 128.732 285.625 127.881 285.582C127.03 285.539 126.196 285.825 125.55 286.38L125.23 286.65C124.89 286.943 124.612 287.302 124.414 287.705C124.215 288.108 124.101 288.546 124.076 288.995C124.052 289.443 124.119 289.892 124.272 290.314C124.426 290.736 124.663 291.122 124.97 291.45L139.38 306.74C141.38 308.85 150.16 320.45 153.74 320.13H178.66C179.545 320.14 180.39 320.5 181.01 321.13L194.15 334.34C194.465 334.646 194.715 335.011 194.887 335.415C195.058 335.818 195.148 336.252 195.15 336.69V437.31C195.149 437.784 195.047 438.252 194.85 438.683C194.653 439.114 194.367 439.499 194.01 439.81L138.55 488.38C138.194 488.69 137.908 489.073 137.711 489.502C137.515 489.932 137.412 490.398 137.41 490.87V500.55C136.413 501.33 135.689 502.405 135.34 503.621C134.991 504.838 135.036 506.133 135.467 507.323C135.899 508.512 136.696 509.535 137.744 510.244C138.792 510.954 140.037 511.314 141.302 511.273C142.567 511.231 143.786 510.792 144.786 510.016C145.786 509.24 146.515 508.168 146.868 506.953C147.222 505.737 147.182 504.442 146.755 503.251C146.328 502.059 145.535 501.034 144.49 500.32V494.24C144.489 493.764 144.59 493.294 144.786 492.861C144.983 492.428 145.271 492.042 145.63 491.73L202.33 442.21C202.686 441.898 202.971 441.514 203.165 441.082C203.36 440.651 203.461 440.183 203.46 439.71V296.86C203.451 296.414 203.353 295.975 203.171 295.568C202.989 295.161 202.727 294.794 202.4 294.49Z" fill="#239899"/>
<path d="M100.94 349.03C103.546 344.87 105.904 340.559 108 336.12C108.056 336 108.149 335.901 108.264 335.836C108.379 335.771 108.511 335.743 108.642 335.756C108.774 335.77 108.898 335.823 108.998 335.91C109.098 335.996 109.168 336.112 109.2 336.24C110.65 342.24 113.53 354.68 107.9 363.24C103.48 369.97 95.98 373.65 90.24 375.59C89.2133 375.935 88.1226 376.047 87.0473 375.917C85.972 375.787 84.9392 375.419 84.0242 374.839C83.1092 374.259 82.3351 373.483 81.7583 372.566C81.1815 371.649 80.8165 370.616 80.69 369.54C79.94 363.35 80.04 354.7 84.52 347.88C89.17 340.79 100.4 336.68 106.87 334.81C107 334.769 107.139 334.771 107.268 334.814C107.397 334.858 107.508 334.942 107.587 335.053C107.665 335.165 107.705 335.298 107.702 335.434C107.699 335.57 107.653 335.702 107.57 335.81C104.782 339.858 102.199 344.043 99.83 348.35C99.7398 348.497 99.7118 348.674 99.7521 348.842C99.7925 349.01 99.8978 349.155 100.045 349.245C100.192 349.335 100.369 349.363 100.537 349.323C100.705 349.282 100.85 349.177 100.94 349.03Z" fill="#239899"/>
<path d="M144.84 349.03C147.454 344.874 149.812 340.563 151.9 336.12C151.959 336.002 152.052 335.904 152.167 335.84C152.283 335.776 152.415 335.749 152.547 335.762C152.678 335.775 152.802 335.828 152.903 335.913C153.004 335.998 153.076 336.112 153.11 336.24C154.55 342.24 157.44 354.68 151.81 363.24C147.39 369.97 139.89 373.65 134.15 375.59C133.123 375.935 132.033 376.047 130.957 375.917C129.882 375.787 128.849 375.419 127.934 374.839C127.019 374.259 126.245 373.483 125.668 372.566C125.092 371.649 124.727 370.616 124.6 369.54C123.84 363.35 123.94 354.7 128.42 347.88C133.08 340.79 144.3 336.68 150.78 334.81C150.91 334.769 151.049 334.771 151.178 334.814C151.307 334.858 151.419 334.942 151.497 335.053C151.575 335.165 151.615 335.298 151.612 335.434C151.609 335.57 151.563 335.702 151.48 335.81C148.689 339.856 146.106 344.041 143.74 348.35C143.65 348.496 143.621 348.671 143.661 348.838C143.7 349.005 143.804 349.15 143.95 349.24C144.096 349.33 144.272 349.359 144.439 349.319C144.605 349.28 144.75 349.176 144.84 349.03Z" fill="#239899"/>
<path d="M113.69 276.01L112.52 283.42C103.06 281.89 104.97 282.24 95.52 280.7L78.98 277.7C78.2127 278.744 77.1756 279.56 75.98 280.06C74.8482 280.547 73.6106 280.738 72.3845 280.614C71.1583 280.49 69.9842 280.054 68.9733 279.35C67.9624 278.645 67.1481 277.693 66.6077 276.586C66.0673 275.478 65.8185 274.251 65.8851 273.02C65.9516 271.789 66.3312 270.596 66.9878 269.553C67.6445 268.51 68.5565 267.652 69.6375 267.06C70.7185 266.469 71.9328 266.162 73.1652 266.171C74.3976 266.18 75.6074 266.503 76.68 267.11C78.1417 267.879 79.2803 269.145 79.89 270.68L113.69 276.01Z" fill="#239899"/>
<path d="M35.51 291.55C40.4194 291.673 45.3316 291.499 50.22 291.03C50.3522 291.018 50.4849 291.047 50.5996 291.114C50.7143 291.181 50.8055 291.282 50.8604 291.402C50.9153 291.523 50.9313 291.658 50.9062 291.789C50.881 291.919 50.816 292.038 50.72 292.13C46.31 296.44 37.08 305.27 26.81 304.82C18.81 304.45 11.81 299.88 7.18002 295.94C6.35878 295.234 5.70544 294.353 5.26761 293.363C4.82978 292.372 4.6185 291.296 4.64916 290.214C4.67982 289.131 4.95165 288.069 5.44484 287.105C5.93802 286.14 6.64014 285.298 7.50002 284.64C12.5 280.82 19.93 276.5 28.08 276.87C36.56 277.25 45.82 284.8 50.73 289.41C50.8281 289.5 50.8957 289.618 50.9234 289.748C50.9512 289.878 50.9378 290.014 50.885 290.136C50.8322 290.258 50.7427 290.36 50.6289 290.429C50.5151 290.498 50.3827 290.53 50.25 290.52C45.3442 290.186 40.4244 290.102 35.51 290.27C35.3403 290.27 35.1775 290.337 35.0575 290.457C34.9375 290.577 34.87 290.74 34.87 290.91C34.87 291.08 34.9375 291.242 35.0575 291.362C35.1775 291.482 35.3403 291.55 35.51 291.55Z" fill="#239899"/>
<path d="M30.8599 247.49C35.7692 247.608 40.6812 247.434 45.5699 246.97C45.7029 246.955 45.8372 246.983 45.9537 247.049C46.0702 247.114 46.1631 247.215 46.2194 247.337C46.2757 247.458 46.2925 247.594 46.2675 247.725C46.2425 247.857 46.1768 247.977 46.0799 248.07C41.6699 252.37 32.4399 261.21 22.1699 260.76C14.1699 260.39 7.16988 255.82 2.52988 251.88C1.71069 251.171 1.05952 250.289 0.623581 249.297C0.18764 248.305 -0.02214 247.229 0.00945337 246.146C0.0410467 245.063 0.313225 244.001 0.806244 243.037C1.29926 242.072 2.00076 241.229 2.85988 240.57C7.79988 236.76 15.2899 232.43 23.4399 232.8C31.9099 233.19 41.1799 240.74 46.0899 245.35C46.1889 245.44 46.257 245.559 46.2847 245.69C46.3123 245.821 46.298 245.958 46.2439 246.081C46.1897 246.203 46.0985 246.306 45.9829 246.374C45.8674 246.442 45.7334 246.472 45.5999 246.46C40.6976 246.12 35.7809 246.037 30.8699 246.21C30.7001 246.208 30.5368 246.274 30.4159 246.393C30.2949 246.513 30.2262 246.675 30.2249 246.845C30.2236 247.014 30.2897 247.178 30.4088 247.299C30.5279 247.42 30.6901 247.488 30.8599 247.49Z" fill="#239899"/>
<path d="M402.63 161.13C398.498 163.779 394.214 166.183 389.8 168.33C389.681 168.387 389.582 168.48 389.518 168.595C389.453 168.711 389.426 168.844 389.44 168.976C389.455 169.107 389.509 169.231 389.597 169.33C389.685 169.43 389.801 169.499 389.93 169.53C395.93 170.91 408.41 173.67 416.93 167.95C423.62 163.46 427.22 155.95 429.1 150.16C429.433 149.129 429.532 148.037 429.391 146.964C429.249 145.89 428.87 144.861 428.281 143.952C427.692 143.044 426.908 142.277 425.986 141.71C425.064 141.142 424.027 140.786 422.95 140.67C416.75 139.98 408.1 140.17 401.33 144.67C394.33 149.4 390.33 160.67 388.49 167.16C388.452 167.289 388.456 167.426 388.501 167.553C388.546 167.68 388.63 167.789 388.741 167.866C388.852 167.942 388.984 167.982 389.118 167.979C389.252 167.976 389.383 167.931 389.49 167.85C393.508 165.018 397.666 162.391 401.95 159.98C402.025 159.935 402.109 159.906 402.196 159.893C402.283 159.881 402.371 159.886 402.456 159.908C402.541 159.929 402.621 159.968 402.691 160.02C402.761 160.073 402.82 160.139 402.865 160.215C402.91 160.29 402.939 160.374 402.951 160.46C402.964 160.547 402.959 160.636 402.937 160.721C402.915 160.806 402.877 160.886 402.824 160.956C402.771 161.026 402.705 161.085 402.63 161.13Z" fill="#239899"/>
<path d="M108.07 558.21C108.07 560.21 107.63 562.21 107.47 564.65C108.82 563.24 113.03 559.38 112.86 555C112.72 551.75 110.81 548.94 109.25 547.18C109.004 546.9 108.7 546.678 108.359 546.529C108.018 546.38 107.649 546.308 107.277 546.317C106.905 546.327 106.539 546.418 106.206 546.584C105.873 546.751 105.581 546.988 105.35 547.28C103.83 549.16 101.98 552.16 102.11 555.44C102.26 559 105.7 562.94 107.36 564.65C107.29 562.35 106.77 560.27 106.83 558.21C106.83 558.06 107.05 552.96 107.48 552.95C107.91 552.94 108.06 558.05 108.07 558.21Z" fill="#239899"/>
<path d="M54.3799 602.86V552.55C54.6499 552.55 54.8799 552.49 55.1199 552.49C63.9066 552.49 72.6999 552.49 81.4999 552.49C84.3267 552.39 87.1063 553.235 89.3999 554.89C91.0459 556.071 92.3721 557.642 93.259 559.463C94.1459 561.284 94.5654 563.297 94.4799 565.32C94.5052 567.354 94.0037 569.359 93.0241 571.141C92.0445 572.924 90.6203 574.422 88.8899 575.49C88.2456 575.867 87.5775 576.201 86.8899 576.49L86.1499 576.86C86.5099 576.99 86.7199 577.09 86.9499 577.15C89.3139 577.955 91.3994 579.418 92.9616 581.366C94.5238 583.314 95.498 585.668 95.7699 588.15C95.9766 589.954 95.8117 591.78 95.2854 593.517C94.7591 595.254 93.8826 596.865 92.7099 598.25C91.646 599.532 90.3359 600.587 88.8569 601.353C87.378 602.119 85.7604 602.581 84.0999 602.71C83.1599 602.8 82.1999 602.85 81.2499 602.85H54.3799V602.86ZM61.1699 596.86H80.4399C81.0912 596.871 81.7416 596.81 82.3799 596.68C83.8237 596.421 85.1684 595.77 86.2672 594.799C87.366 593.827 88.1764 592.572 88.6099 591.17C89.1303 589.813 89.2637 588.339 88.9953 586.91C88.7269 585.482 88.0673 584.156 87.0899 583.08C86.2569 582.104 85.2151 581.328 84.0415 580.808C82.8679 580.289 81.5926 580.04 80.3099 580.08C74.2166 580.08 68.1232 580.08 62.0299 580.08C61.7413 580.095 61.454 580.128 61.1699 580.18V596.86ZM61.1699 574.3C61.4899 574.3 61.7099 574.3 61.9199 574.3C67.7999 574.3 73.6799 574.3 79.5599 574.3C80.3492 574.295 81.1338 574.177 81.8899 573.95C83.4632 573.555 84.8725 572.675 85.9187 571.435C86.9648 570.195 87.5949 568.658 87.7199 567.04C87.9062 565.552 87.6406 564.042 86.9576 562.706C86.2746 561.37 85.2058 560.271 83.8899 559.55C82.5137 558.755 80.9375 558.373 79.3499 558.45H62.0499C61.7699 558.45 61.4799 558.45 61.1799 558.53L61.1699 574.3Z" fill="#239899"/>
<path d="M209.4 552.49V558.49C209.01 558.49 208.67 558.49 208.32 558.49H193.05C192.235 558.48 191.421 558.55 190.62 558.7C189.189 558.949 187.887 559.68 186.928 560.772C185.97 561.863 185.413 563.249 185.35 564.7C185.2 568.37 185.35 572.05 185.35 575.83C186.35 575.92 187.35 575.83 188.35 575.83H206.61C206.826 577.807 206.826 579.803 206.61 581.78C206.27 581.78 205.89 581.83 205.52 581.83H186.52C186.15 581.83 185.78 581.83 185.31 581.89V602.78H178.55C178.55 602.49 178.55 602.23 178.55 601.96C178.55 589.74 178.55 577.523 178.55 565.31C178.483 562.634 179.282 560.008 180.828 557.822C182.374 555.636 184.584 554.008 187.13 553.18C188.609 552.7 190.155 552.461 191.71 552.47C197.37 552.47 203.03 552.47 208.71 552.47C208.87 552.49 209.08 552.49 209.4 552.49Z" fill="#239899"/>
<path d="M162.15 582.93C162.156 586.981 160.96 590.943 158.713 594.314C156.466 597.685 153.269 600.313 149.527 601.866C145.786 603.419 141.667 603.827 137.694 603.038C133.72 602.249 130.07 600.299 127.205 597.435C124.341 594.57 122.391 590.92 121.602 586.946C120.813 582.973 121.221 578.855 122.774 575.113C124.327 571.371 126.955 568.175 130.326 565.928C133.697 563.681 137.659 562.484 141.71 562.49C147.122 562.519 152.304 564.682 156.131 568.509C159.958 572.336 162.121 577.518 162.15 582.93ZM157.21 582.93C157.202 579.864 156.286 576.869 154.578 574.323C152.869 571.777 150.445 569.794 147.611 568.624C144.776 567.454 141.659 567.15 138.652 567.75C135.646 568.351 132.884 569.828 130.716 571.996C128.548 574.164 127.07 576.926 126.47 579.933C125.87 582.94 126.174 586.057 127.344 588.891C128.513 591.725 130.496 594.15 133.043 595.858C135.589 597.566 138.584 598.482 141.65 598.49C143.694 598.498 145.719 598.102 147.61 597.325C149.5 596.548 151.219 595.405 152.667 593.962C154.114 592.519 155.263 590.805 156.046 588.916C156.829 587.028 157.231 585.004 157.23 582.96L157.21 582.93Z" fill="#239899"/>
<path d="M403.65 584.71C403.65 588.76 402.449 592.718 400.199 596.085C397.949 599.452 394.75 602.075 391.009 603.624C387.267 605.173 383.15 605.577 379.179 604.785C375.208 603.994 371.56 602.042 368.698 599.178C365.836 596.313 363.888 592.664 363.101 588.691C362.313 584.719 362.722 580.603 364.274 576.863C365.826 573.123 368.453 569.927 371.822 567.68C375.191 565.433 379.151 564.236 383.2 564.24C388.62 564.264 393.811 566.429 397.641 570.263C401.472 574.098 403.632 579.29 403.65 584.71ZM383.15 600.18C386.216 600.184 389.215 599.278 391.765 597.577C394.316 595.875 396.305 593.455 397.479 590.623C398.653 587.79 398.96 584.673 398.362 581.666C397.763 578.659 396.285 575.897 394.116 573.73C391.946 571.563 389.183 570.089 386.175 569.495C383.167 568.9 380.05 569.211 377.219 570.389C374.388 571.567 371.971 573.559 370.272 576.112C368.574 578.665 367.672 581.664 367.68 584.73C367.673 586.763 368.069 588.776 368.844 590.655C369.62 592.534 370.759 594.241 372.197 595.677C373.636 597.113 375.344 598.25 377.224 599.023C379.103 599.796 381.118 600.189 383.15 600.18Z" fill="#239899"/>
<path d="M245.09 566.24H251.59C251.59 566.51 251.65 566.74 251.65 566.98C251.65 573.98 251.65 580.98 251.65 588.05C251.657 591.598 250.438 595.039 248.201 597.792C245.963 600.546 242.844 602.442 239.37 603.16C234.923 604.314 230.212 603.857 226.07 601.87C223.764 600.819 221.77 599.189 220.28 597.139C218.791 595.089 217.857 592.688 217.57 590.17C217.437 589.226 217.373 588.274 217.38 587.32C217.38 580.654 217.38 573.957 217.38 567.23V566.23C219.56 566.14 221.67 566.23 223.86 566.23C223.86 566.64 223.91 566.98 223.91 567.32V586.68C223.849 588.18 224.049 589.679 224.5 591.11C225.091 593.013 226.236 594.696 227.79 595.943C229.344 597.19 231.234 597.945 233.22 598.11C235.657 598.475 238.143 597.945 240.22 596.62C241.632 595.782 242.815 594.61 243.666 593.206C244.517 591.802 245.01 590.21 245.1 588.57C245.15 587.95 245.16 587.32 245.16 586.7C245.16 580.3 245.16 573.904 245.16 567.51L245.09 566.24Z" fill="#239899"/>
<path d="M319.43 566.24H325.92C325.956 566.486 325.98 566.733 325.99 566.98C325.99 573.98 325.99 580.98 325.99 588.05C325.998 591.6 324.779 595.043 322.539 597.797C320.3 600.551 317.177 602.445 313.7 603.16C309.253 604.314 304.542 603.857 300.4 601.87C298.096 600.818 296.103 599.188 294.615 597.138C293.127 595.088 292.195 592.687 291.91 590.17C291.777 589.226 291.713 588.274 291.72 587.32C291.72 580.62 291.72 573.93 291.72 567.23V566.23C293.9 566.14 296.01 566.23 298.2 566.23C298.2 566.64 298.25 566.98 298.25 567.33V586.68C298.189 588.18 298.389 589.679 298.84 591.11C299.431 593.013 300.576 594.696 302.13 595.943C303.684 597.19 305.575 597.945 307.56 598.11C310.093 598.477 312.671 597.885 314.79 596.45C316.12 595.608 317.23 594.461 318.03 593.105C318.83 591.749 319.296 590.222 319.39 588.65C319.45 588 319.46 587.35 319.46 586.65V566.25L319.43 566.24Z" fill="#239899"/>
<path d="M264.45 571.81H258.15V566.23C260.21 566.17 262.27 566.23 264.39 566.23C264.467 565.466 264.491 564.698 264.46 563.93C264.46 563.16 264.46 562.4 264.46 561.64V557.11H270.91C270.91 558.11 270.91 559.11 270.91 560.11V566.22H283.49C283.55 568.12 283.49 569.93 283.49 571.83H270.98C270.98 572.18 270.92 572.44 270.92 572.71C270.92 579.13 270.92 585.55 270.92 591.97C270.924 592.706 271.035 593.437 271.25 594.14C271.515 595.036 272.06 595.823 272.805 596.387C273.55 596.95 274.456 597.26 275.39 597.27C277.71 597.27 280.02 597.27 282.33 597.27C282.65 597.27 282.97 597.27 283.33 597.33V602.8C283.07 602.8 282.86 602.85 282.65 602.85C279.9 602.85 277.15 602.85 274.4 602.85C273.201 602.85 272.01 602.661 270.87 602.29C269.203 601.782 267.723 600.795 266.612 599.453C265.501 598.111 264.808 596.472 264.62 594.74C264.493 593.907 264.436 593.064 264.45 592.22C264.45 585.8 264.45 579.38 264.45 572.95V571.81Z" fill="#239899"/>
<path d="M342.96 602.82H336.54C336.54 602.52 336.49 602.26 336.49 601.99V576.2C336.496 575.087 336.654 573.98 336.96 572.91C337.426 571.145 338.429 569.568 339.829 568.396C341.23 567.225 342.96 566.517 344.78 566.37C347.875 566.155 350.98 566.105 354.08 566.22C354.13 566.212 354.18 566.212 354.23 566.22C354.416 568.046 354.416 569.885 354.23 571.71C353.96 571.71 353.67 571.71 353.39 571.71H348.24C347.751 571.693 347.262 571.727 346.78 571.81C345.695 571.999 344.714 572.569 344.013 573.418C343.313 574.268 342.939 575.34 342.96 576.44C342.96 576.82 342.96 577.2 342.96 577.58V602.72V602.82Z" fill="#239899"/>
<path d="M104.4 566.25H110.69C110.85 566.9 110.89 601.75 110.74 602.8H104.43C104.26 602.17 104.22 567.28 104.4 566.25Z" fill="#239899"/>
</g>
<defs>
<clipPath id="clip0_577_2">
<rect width="443.17" height="605.19" fill="white"/>
</clipPath>
</defs>
</svg>
