<svg width="146" height="22" viewBox="0 0 146 22" fill="none" xmlns="http://www.w3.org/2000/svg">
<g clip-path="url(#clip0_216_183)">
<path d="M8.78362 20.8653H0V0.588379H8.97139C10.5654 0.588379 11.8756 0.709373 12.9063 0.947188C13.937 1.185 14.7298 1.56467 15.2889 2.07785C15.8481 2.59103 16.2236 3.24607 16.4239 4.03461C16.6242 4.82316 16.7243 5.77442 16.7243 6.87588C16.7077 7.7437 16.5616 8.46132 16.2945 9.03291C16.0275 9.6045 15.7104 10.0259 15.3473 10.3054C14.9843 10.585 14.6672 10.7226 14.396 10.7226C14.663 10.7226 14.976 10.8103 15.3348 10.9855C15.6937 11.1607 16.04 11.4111 16.3822 11.7407C16.7243 12.0703 17.0039 12.4708 17.2292 12.9423C17.4546 13.4137 17.5672 13.9519 17.5672 14.5527C17.5672 15.3454 17.513 16.0714 17.4003 16.7306C17.2877 17.3898 17.0665 17.9739 16.7327 18.4829C16.3989 18.9919 15.9107 19.4217 15.2597 19.7763C14.6088 20.131 13.7617 20.398 12.7102 20.5816C11.6586 20.7651 10.3526 20.8569 8.78779 20.8569L8.78362 20.8653ZM8.4957 8.98701C9.24679 8.98701 9.8268 8.92443 10.2399 8.80344C10.653 8.68244 10.9368 8.49469 11.0995 8.24436C11.2622 7.99403 11.3373 7.67694 11.3373 7.28893C11.3373 6.90091 11.2581 6.57131 11.0995 6.32098C10.9409 6.07065 10.653 5.88707 10.2399 5.77025C9.8268 5.65343 9.24679 5.59502 8.4957 5.59502H5.14082V8.98701H8.4957ZM8.4957 15.8586C9.26348 15.8586 9.88522 15.8252 10.3651 15.7585C10.845 15.6917 11.1913 15.5415 11.4166 15.3079C11.6419 15.0743 11.7504 14.6904 11.7504 14.1605C11.7504 13.6307 11.6378 13.2468 11.4166 13.009C11.1955 12.7712 10.845 12.6168 10.3651 12.5584C9.88522 12.5 9.26348 12.4666 8.4957 12.4666H5.14082V15.8586H8.4957Z" fill="#DFE5E8"/>
<path d="M24.0809 5.84521H20.7427V20.8651H24.0809V5.84521Z" fill="#DFE5E8"/>
<path d="M22.4118 4.59776C23.6816 4.59776 24.711 3.56852 24.711 2.29888C24.711 1.02924 23.6816 0 22.4118 0C21.142 0 20.1126 1.02924 20.1126 2.29888C20.1126 3.56852 21.142 4.59776 22.4118 4.59776Z" fill="#DFE5E8"/>
<path d="M39.0652 3.79663C41.452 4.88975 43.1086 7.29293 43.1086 10.0841C43.1086 13.9059 40.0082 17.0058 36.186 17.0058C32.3638 17.0058 29.2634 13.9059 29.2634 10.0841C29.2634 9.08281 29.4804 8.13154 29.8643 7.27207C28.8587 8.69896 28.262 10.4346 28.262 12.3163C28.262 17.1602 32.1885 21.082 37.0289 21.082C41.8693 21.082 45.7958 17.156 45.7958 12.3163C45.7958 8.17327 42.9208 4.71451 39.061 3.79663H39.0652Z" fill="#DFE5E8"/>
<path d="M139.265 4.71045C141.652 5.80357 143.309 8.20675 143.309 10.998C143.309 14.8197 140.208 17.9196 136.386 17.9196C132.564 17.9196 129.463 14.8197 129.463 10.998C129.463 9.99662 129.68 9.04536 130.064 8.18589C129.059 9.61278 128.462 11.3484 128.462 13.2301C128.462 18.074 132.389 21.9959 137.229 21.9959C142.069 21.9959 145.996 18.0698 145.996 13.2301C145.996 9.08708 143.121 5.62833 139.261 4.71045H139.265Z" fill="#DFE5E8"/>
<path d="M51.7128 20.7691H55.4933V13.3134H64.0182V9.74617H55.7102V5.53642C55.7102 4.52258 57.2834 3.9635 57.2834 3.9635H64.9821V0.529785H55.9272C55.5767 0.558991 54.2206 0.717534 53.1023 1.86072C52.0341 2.95383 51.8797 4.24304 51.8505 4.60185C51.8046 9.98816 51.7628 15.3786 51.7169 20.7649L51.7128 20.7691Z" fill="#DFE5E8"/>
<path d="M75.7477 20.7693C72.9687 20.7693 71.0159 20.0516 69.8809 18.6206C68.9295 17.419 68.4538 15.6833 68.4538 13.4095V6.3418H73.2316V13.4137C73.2316 14.3983 73.3651 15.1785 73.6363 15.7459C74.0244 16.5679 74.7254 16.9767 75.7477 16.9767C76.7701 16.9767 77.4878 16.5679 77.8675 15.7459C78.1387 15.1535 78.2723 14.3774 78.2723 13.4137V6.3418H83.05V13.4929C83.05 15.7126 82.5743 17.4232 81.6271 18.6247C80.488 20.0558 78.5268 20.7734 75.7436 20.7734L75.7477 20.7693Z" fill="#DFE5E8"/>
<path d="M96.4571 20.9819C95.5683 21.0904 94.596 21.1404 93.5487 21.1404C91.8837 21.1404 90.6611 20.9569 89.8892 20.5855C89.113 20.2142 88.6332 19.7427 88.4454 19.1628C88.2576 18.5829 88.1658 17.7943 88.1658 16.7972V8.749H85.345V6.77138H88.1658V3.2417H92.2134V6.77138H95.9188V8.749H92.2134V16.9307C92.2134 17.9028 92.4095 18.5203 92.8059 18.7831C93.2023 19.046 93.7406 19.1795 94.4333 19.1795C95.1259 19.1795 95.8103 19.1461 96.4571 19.071V20.9819Z" fill="#DFE5E8"/>
<path d="M107.231 20.7693C104.452 20.7693 102.499 20.0516 101.364 18.6206C100.413 17.419 99.9371 15.6833 99.9371 13.4095V6.3418H104.715V13.4137C104.715 14.3983 104.848 15.1785 105.12 15.7459C105.508 16.5679 106.209 16.9767 107.231 16.9767C108.253 16.9767 108.971 16.5679 109.351 15.7459C109.622 15.1535 109.756 14.3774 109.756 13.4137V6.3418H114.533V13.4929C114.533 15.7126 114.062 17.4232 113.115 18.6247C111.975 20.0558 110.014 20.7734 107.231 20.7734V20.7693Z" fill="#DFE5E8"/>
<path d="M126.25 9.22049C125.524 8.98268 124.711 8.86169 123.805 8.86169C122.966 8.86169 122.186 8.97434 121.464 9.19546V20.6607H118.543V7.81446C119.198 7.57665 119.954 7.37638 120.801 7.21367C121.648 7.05095 122.583 6.97168 123.601 6.97168C124.143 6.97168 124.686 6.99671 125.228 7.04678C125.771 7.09685 126.28 7.19281 126.755 7.32632L126.246 9.22049H126.25Z" fill="#DFE5E8"/>
</g>
<defs>
<clipPath id="clip0_216_183">
<rect width="146" height="22" fill="white"/>
</clipPath>
</defs>
</svg>
