<svg width="54" height="62" viewBox="0 0 54 62" fill="none" xmlns="http://www.w3.org/2000/svg">
<g clip-path="url(#clip0_334_9)">
<path d="M27.3009 19.444V7.45919C27.3009 7.39007 27.2548 7.23242 26.8362 7.23242C26.4686 7.23242 26.4019 7.39007 26.4019 7.45919L26.3618 22.8067H27.3106V20.7282L27.3009 19.444Z" fill="#DFE5E8"/>
<path d="M23.8515 11.3797V6.15065L22.2341 4.53416C22.2984 4.38864 22.3336 4.22857 22.3336 4.0588C22.3336 3.40517 21.8034 2.87402 21.1482 2.87402C20.493 2.87402 19.9628 3.40396 19.9628 4.0588C19.9628 4.71364 20.493 5.24357 21.1482 5.24357C21.3569 5.24357 21.5522 5.189 21.7221 5.09563L23.1004 6.47322V11.8102L25.4919 14.2003L25.4979 13.0253L23.8527 11.3809L23.8515 11.3797Z" fill="#DFE5E8"/>
<path d="M26.5123 57.1894V60.7825C26.5123 60.9281 26.6749 61.0457 26.8763 61.0457C27.0778 61.0457 27.2404 60.9281 27.2404 60.7825V57.1894C27.2404 56.919 26.7307 56.8183 26.5596 57.0584C26.5293 57.1009 26.5123 57.1445 26.5123 57.1894Z" fill="#DFE5E8"/>
<path d="M26.8762 61.8909C27.4123 61.8909 27.8469 61.4566 27.8469 60.9208C27.8469 60.385 27.4123 59.9507 26.8762 59.9507C26.3402 59.9507 25.9056 60.385 25.9056 60.9208C25.9056 61.4566 26.3402 61.8909 26.8762 61.8909Z" fill="#DFE5E8"/>
<path d="M49.0181 38.5096C48.3532 38.13 47.5379 38.2634 47.0246 38.7836L41.6569 35.7168L38.222 36.653C37.9709 36.7439 37.8483 37.0216 37.9369 37.2472C38.0145 37.4448 38.2378 37.5649 38.4647 37.5176L41.4713 36.6991L46.5806 39.6179C46.4447 40.2958 46.7456 41.0137 47.3789 41.3763C48.1712 41.8286 49.1795 41.5534 49.6321 40.7627C50.0846 39.972 49.8092 38.9631 49.0181 38.5108V38.5096Z" fill="#DFE5E8"/>
<path d="M23.9376 18.6082C24.4556 18.6082 24.8755 18.1885 24.8755 17.6708C24.8755 17.1531 24.4556 16.7334 23.9376 16.7334C23.4196 16.7334 22.9997 17.1531 22.9997 17.6708C22.9997 18.1885 23.4196 18.6082 23.9376 18.6082Z" fill="#DFE5E8"/>
<path d="M29.77 18.6082C30.288 18.6082 30.7079 18.1885 30.7079 17.6708C30.7079 17.1531 30.288 16.7334 29.77 16.7334C29.252 16.7334 28.8321 17.1531 28.8321 17.6708C28.8321 18.1885 29.252 18.6082 29.77 18.6082Z" fill="#DFE5E8"/>
<path d="M15.4188 18.9031L16.2487 19.7326L16.1201 19.8611L18.8271 22.5666L19.3415 22.0524L16.6346 19.347L16.506 19.4755L15.6761 18.646C15.977 18.2168 15.9224 17.6056 15.5195 17.2042C15.0706 16.7555 14.362 16.7385 13.9349 17.1642C13.5079 17.5898 13.5261 18.2992 13.975 18.7479C14.3766 19.1493 14.9881 19.2051 15.4176 18.9043L15.4188 18.9031Z" fill="#DFE5E8" stroke="#DFE5E8" stroke-linecap="square" stroke-linejoin="bevel"/>
<path d="M18.1246 54.7715V54.7739L14.2893 58.6629C14.2505 58.6569 14.2116 58.652 14.1704 58.652C13.7748 58.652 13.4533 58.977 13.4533 59.3796C13.4533 59.7822 13.7748 60.1072 14.1704 60.1072C14.5659 60.1072 14.8875 59.7822 14.8875 59.3796C14.8875 59.3384 14.8838 59.2984 14.8765 59.2596L18.4655 55.6204H22.188V54.7715H18.1234H18.1246Z" fill="#DFE5E8"/>
<path d="M26.619 56.0471V30.1324L20.3765 23.8933H16.2099L12.2217 19.9072L11.7801 20.7197L15.727 24.6645H19.8341L25.5585 30.3859V55.6748L22.9135 58.3184L22.9014 60.7474C22.7376 60.9148 22.6539 61.1609 22.7145 61.4241C22.7752 61.6872 22.9948 61.9079 23.2654 61.9649C23.7361 62.0644 24.1523 61.7078 24.1523 61.2543C24.1523 61.0312 24.0516 60.8323 23.8939 60.6989V58.7708L26.6202 56.0459L26.619 56.0471Z" fill="#DFE5E8"/>
<path d="M35.6291 54.7715V54.7739L39.4644 58.6629C39.5033 58.6569 39.5421 58.652 39.5833 58.652C39.9789 58.652 40.3004 58.977 40.3004 59.3796C40.3004 59.7822 39.9789 60.1072 39.5833 60.1072C39.1878 60.1072 38.8663 59.7822 38.8663 59.3796C38.8663 59.3384 38.8699 59.2984 38.8772 59.2596L35.2882 55.6204H31.5657V54.7715H35.6304H35.6291Z" fill="#DFE5E8"/>
<path d="M28.9498 35.6974L32.4199 32.2292C32.4951 32.154 32.5983 32.1115 32.705 32.1115H35.822C35.9288 32.1115 36.0307 32.0691 36.1072 31.9939L38.99 29.1126C39.0652 29.0374 39.1684 28.995 39.2752 28.995H43.6989C43.8057 28.995 43.9076 28.9525 43.984 28.8773L48.5255 24.3383C48.6007 24.2631 48.7039 24.2207 48.8106 24.2207H51.2846C51.6377 24.2207 51.7359 24.3941 51.7359 24.6294C51.7359 24.7943 51.7262 24.9689 51.6595 25.0429C51.5746 25.1363 51.4508 25.1823 51.3246 25.1823H49.3299C49.2232 25.1823 49.1212 25.2248 49.0448 25.3L44.4136 29.9287C44.3383 30.0039 44.2352 30.0464 44.1284 30.0464H39.6573C39.5554 30.0464 39.4559 30.0852 39.3819 30.1555L36.5318 32.8282C36.4566 32.8985 36.3583 32.9373 36.2564 32.9373H33.1285C33.0217 32.9373 32.9198 32.9798 32.8433 33.055L29.9411 35.9557C29.8659 36.0309 29.8234 36.1339 29.8234 36.2407V38.4707C29.8234 38.8297 30.2565 39.0092 30.5113 38.7557L31.2345 38.033C31.3097 37.9578 31.4128 37.9153 31.5196 37.9153H34.5553C34.6657 37.9153 34.7713 37.8705 34.8477 37.7892C35.8063 36.7791 36.7636 35.7689 37.7221 34.7588C37.8701 34.6036 38.114 34.5902 38.2766 34.7297L38.3154 34.7636C38.4901 34.9128 38.5035 35.1784 38.347 35.3457C37.7646 35.9642 37.181 36.5814 36.5986 37.1999C36.3571 37.4557 35.2906 38.8637 34.8562 38.8236H31.8326C31.7259 38.8236 31.624 38.8661 31.5475 38.9413L29.9593 40.5286C29.8841 40.6038 29.8416 40.7069 29.8416 40.8136V53.0155C29.8416 53.1319 29.8913 53.2422 29.9787 53.3186L36.709 59.2086C36.7963 59.285 36.8461 59.3953 36.8461 59.5117V60.6844C37.0426 60.8384 37.1579 61.0894 37.1179 61.3659C37.0718 61.686 36.806 61.9431 36.4845 61.9795C36.0441 62.0304 35.6704 61.6873 35.6704 61.2568C35.6704 61.0069 35.7966 60.7875 35.9883 60.6565L35.9907 59.9192C35.9907 59.8028 35.9409 59.6912 35.8524 59.6148L28.9729 53.6097C28.8855 53.5333 28.8345 53.4229 28.8345 53.3065V35.9848C28.8345 35.8781 28.877 35.7762 28.9522 35.6998L28.9498 35.6974Z" fill="#DFE5E8"/>
<path d="M9.86672 16.7835C10.2999 16.8636 10.6457 17.2152 10.7197 17.6494C10.7634 17.9016 10.7173 18.1417 10.6093 18.343L12.2594 19.9437L11.7813 20.7198L10.0038 18.9639C9.8922 18.8584 9.84488 18.9081 9.65438 18.9118C9.27826 18.919 8.91911 18.7468 8.74076 18.4158C8.26028 17.522 8.99191 16.6222 9.86672 16.7835Z" fill="#DFE5E8"/>
<path d="M38.8978 35.0838C39.4339 35.0838 39.8685 34.6495 39.8685 34.1137C39.8685 33.5779 39.4339 33.1436 38.8978 33.1436C38.3618 33.1436 37.9272 33.5779 37.9272 34.1137C37.9272 34.6495 38.3618 35.0838 38.8978 35.0838Z" stroke="#DFE5E8" stroke-width="2" stroke-miterlimit="10"/>
<path d="M21.2056 30.1962C21.0634 30.0542 20.8331 30.054 20.6912 30.1958C20.5493 30.3377 20.5495 30.5678 20.6916 30.7099L23.6035 33.6202C23.7457 33.7623 23.9759 33.7625 24.1179 33.6206C24.2598 33.4788 24.2596 33.2486 24.1174 33.1066L21.2056 30.1962Z" fill="#DFE5E8"/>
<path d="M30.0638 33.6202L32.9757 30.7099C33.1179 30.5678 33.1181 30.3377 32.9761 30.1958C32.8342 30.054 32.6039 30.0542 32.4618 30.1962L29.5499 33.1066C29.4078 33.2486 29.4076 33.4788 29.5495 33.6206C29.6914 33.7625 29.9217 33.7623 30.0638 33.6202Z" fill="#DFE5E8"/>
<path d="M18.9654 30.5775C19.8466 30.5775 20.5609 29.8635 20.5609 28.9828C20.5609 28.1021 19.8466 27.3882 18.9654 27.3882C18.0842 27.3882 17.3699 28.1021 17.3699 28.9828C17.3699 29.8635 18.0842 30.5775 18.9654 30.5775Z" stroke="#DFE5E8" stroke-width="2" stroke-miterlimit="10"/>
<path d="M17.7513 27.9919L15.1428 26.6982L14.8192 27.35L17.4277 28.6436L17.7513 27.9919Z" fill="#DFE5E8"/>
<path d="M14.9675 35.1117C15.5036 35.1117 15.9381 34.6773 15.9381 34.1415C15.9381 33.6057 15.5036 33.1714 14.9675 33.1714C14.4314 33.1714 13.9968 33.6057 13.9968 34.1415C13.9968 34.6773 14.4314 35.1117 14.9675 35.1117Z" stroke="#DFE5E8" stroke-width="2" stroke-miterlimit="10"/>
<path d="M13.6389 28.0516C14.5201 28.0516 15.2344 27.3377 15.2344 26.457C15.2344 25.5763 14.5201 24.8623 13.6389 24.8623C12.7577 24.8623 12.0434 25.5763 12.0434 26.457C12.0434 27.3377 12.7577 28.0516 13.6389 28.0516Z" stroke="#DFE5E8" stroke-width="2" stroke-miterlimit="10"/>
<path d="M12.2521 25.3087L10.3607 24.2173L9.99672 24.8474L11.8881 25.9388L12.2521 25.3087Z" fill="#DFE5E8"/>
<path d="M9.51486 24.8644C9.93837 24.8644 10.2817 24.5212 10.2817 24.0979C10.2817 23.6747 9.93837 23.3315 9.51486 23.3315C9.09136 23.3315 8.74805 23.6747 8.74805 24.0979C8.74805 24.5212 9.09136 24.8644 9.51486 24.8644Z" stroke="#DFE5E8" stroke-width="2" stroke-miterlimit="10" stroke-linecap="round"/>
<path d="M39.8381 33.5059L39.9789 34.4045C41.1267 34.2178 40.8961 34.2614 42.0439 34.0747C42.7125 33.9546 43.381 33.8358 44.0496 33.7157C44.1127 33.8042 44.2304 33.9231 44.4136 34.0007C44.7788 34.1571 45.2144 34.0371 45.4534 33.7194C45.7834 33.2804 45.6378 32.6522 45.1416 32.4048C44.8868 32.2775 44.5786 32.2945 44.3286 32.4315C44.1236 32.5431 44.0071 32.6971 43.9392 32.8644L39.8381 33.5059Z" fill="#DFE5E8"/>
<path d="M15.3024 14.2306C15.8257 14.2306 16.25 13.8066 16.25 13.2835C16.25 12.7605 15.8257 12.3364 15.3024 12.3364C14.7791 12.3364 14.3548 12.7605 14.3548 13.2835C14.3548 13.8066 14.7791 14.2306 15.3024 14.2306Z" fill="#DFE5E8"/>
<path d="M38.4525 14.2306C38.9759 14.2306 39.4002 13.8066 39.4002 13.2835C39.4002 12.7605 38.9759 12.3364 38.4525 12.3364C37.9292 12.3364 37.5049 12.7605 37.5049 13.2835C37.5049 13.8066 37.9292 14.2306 38.4525 14.2306Z" fill="#DFE5E8"/>
<path d="M18.1391 54.7712H12.7799C12.6561 54.5444 12.4159 54.3916 12.1405 54.3916C11.7389 54.3916 11.4125 54.7178 11.4125 55.1192C11.4125 55.5206 11.7389 55.8468 12.1405 55.8468C12.4511 55.8468 12.7156 55.6516 12.8199 55.3775H18.1391V54.7712Z" fill="#DFE5E8"/>
<path d="M35.435 54.7712H40.7942C40.918 54.5444 41.1582 54.3916 41.4337 54.3916C41.8353 54.3916 42.1616 54.7178 42.1616 55.1192C42.1616 55.5206 41.8353 55.8468 41.4337 55.8468C41.123 55.8468 40.8585 55.6516 40.7542 55.3775H35.435V54.7712Z" fill="#DFE5E8"/>
<path d="M16.2864 9.18121C17.3425 9.18121 18.1986 8.32556 18.1986 7.27005C18.1986 6.21454 17.3425 5.35889 16.2864 5.35889C15.2303 5.35889 14.3742 6.21454 14.3742 7.27005C14.3742 8.32556 15.2303 9.18121 16.2864 9.18121Z" stroke="#DFE5E8" stroke-miterlimit="10"/>
<path d="M16.2718 8.62708C16.9996 8.62708 17.5895 8.03745 17.5895 7.31012C17.5895 6.58279 16.9996 5.99316 16.2718 5.99316C15.5441 5.99316 14.9542 6.58279 14.9542 7.31012C14.9542 8.03745 15.5441 8.62708 16.2718 8.62708Z" fill="#DFE5E8"/>
<path d="M37.8143 9.18121C38.8704 9.18121 39.7265 8.32556 39.7265 7.27005C39.7265 6.21454 38.8704 5.35889 37.8143 5.35889C36.7582 5.35889 35.9021 6.21454 35.9021 7.27005C35.9021 8.32556 36.7582 9.18121 37.8143 9.18121Z" stroke="#DFE5E8" stroke-miterlimit="10"/>
<path d="M37.8289 8.62708C38.5566 8.62708 39.1466 8.03745 39.1466 7.31012C39.1466 6.58279 38.5566 5.99316 37.8289 5.99316C37.1012 5.99316 36.5112 6.58279 36.5112 7.31012C36.5112 8.03745 37.1012 8.62708 37.8289 8.62708Z" fill="#DFE5E8"/>
<path d="M34.6888 12.0952C34.7385 13.8269 34.6791 15.3039 34.6767 17.2406L31.0585 20.8422L31.681 21.571L35.6449 17.5219V12.0964C35.4532 12.0928 34.8805 12.0989 34.6888 12.0964V12.0952Z" fill="#DFE5E8"/>
<path d="M30.0175 11.4099V6.18092L31.6349 4.56444C31.5706 4.41892 31.5354 4.25885 31.5354 4.08907C31.5354 3.43544 32.0656 2.9043 32.7208 2.9043C33.3748 2.9043 33.9062 3.43423 33.9062 4.08907C33.9062 4.74391 33.376 5.27385 32.7208 5.27385C32.5121 5.27385 32.3167 5.21928 32.1469 5.1259L30.7686 6.50349V11.8404L28.3771 14.2306L28.371 13.0555C28.371 13.0555 29.4679 11.9593 30.0163 11.4112L30.0175 11.4099Z" fill="#DFE5E8"/>
<path d="M48.1785 40.9143C48.6965 40.9143 49.1164 40.4947 49.1164 39.9769C49.1164 39.4592 48.6965 39.0396 48.1785 39.0396C47.6605 39.0396 47.2406 39.4592 47.2406 39.9769C47.2406 40.4947 47.6605 40.9143 48.1785 40.9143Z" fill="#DFE5E8"/>
<path d="M4.37039 19.5398C4.8533 19.8527 5.32528 20.1146 5.9283 20.4129C5.99382 20.4456 5.9829 20.5427 5.91131 20.5584C5.18211 20.7258 3.6691 21.0605 2.63292 20.3668C1.82121 19.8223 1.38442 18.908 1.15631 18.2095C0.982807 17.6759 1.34438 17.1205 1.9025 17.0587C2.65476 16.975 3.70428 16.998 4.5257 17.5498C5.37988 18.1234 5.86399 19.4901 6.0836 20.2771C6.10301 20.3474 6.02294 20.4032 5.96348 20.3608C5.43812 19.9885 4.96128 19.6962 4.45169 19.4064C4.36433 19.3567 4.28546 19.484 4.37039 19.5386V19.5398Z" fill="#DFE5E8"/>
<path d="M22.2523 15.7791C22.5639 15.7791 22.8165 15.5267 22.8165 15.2153C22.8165 14.9038 22.5639 14.6514 22.2523 14.6514C21.9407 14.6514 21.6881 14.9038 21.6881 15.2153C21.6881 15.5267 21.9407 15.7791 22.2523 15.7791Z" stroke="#DFE5E8" stroke-width="2" stroke-miterlimit="10"/>
<path d="M4.67372 38.8128C5.33862 38.4332 6.15397 38.5666 6.66721 39.0869L12.0349 36.02L15.4698 36.9562C15.721 37.0471 15.8435 37.3248 15.755 37.5504C15.6773 37.7481 15.4541 37.8681 15.2272 37.8208L12.2206 37.0023L7.11128 39.9212C7.24717 40.5991 6.94627 41.3169 6.31292 41.6795C5.52062 42.1319 4.51235 41.8566 4.05978 41.0659C3.60721 40.2753 3.88264 39.2663 4.67372 38.814V38.8128Z" fill="#DFE5E8"/>
<path d="M5.51334 41.2176C6.03132 41.2176 6.45123 40.7979 6.45123 40.2802C6.45123 39.7625 6.03132 39.3428 5.51334 39.3428C4.99535 39.3428 4.57544 39.7625 4.57544 40.2802C4.57544 40.7979 4.99535 41.2176 5.51334 41.2176Z" fill="#DFE5E8"/>
<path d="M26.7428 3.74357C26.7307 4.31837 26.7562 4.85801 26.8205 5.52619C26.8277 5.59895 26.7392 5.64139 26.6882 5.58924C26.1616 5.0581 25.0818 3.94729 25.1267 2.70189C25.1631 1.72569 25.7103 0.873185 26.1847 0.311721C26.5462 -0.116351 27.2099 -0.100586 27.5557 0.340825C28.0229 0.936244 28.5555 1.83968 28.5179 2.828C28.4791 3.85634 27.5715 4.98655 27.017 5.58682C26.9673 5.64018 26.8775 5.60258 26.8823 5.52861C26.9224 4.8859 26.9199 4.32807 26.8993 3.74114C26.8957 3.64049 26.7452 3.64049 26.744 3.74114L26.7428 3.74357Z" fill="#DFE5E8"/>
<path d="M49.6915 35.0778C49.1164 35.0936 48.5765 35.073 47.9067 35.0147C47.8339 35.0087 47.7927 35.0972 47.8449 35.1481C48.3811 35.6696 49.4998 36.7416 50.7459 36.687C51.7226 36.6434 52.5707 36.0892 53.1289 35.6102C53.5547 35.2452 53.5341 34.5818 53.0888 34.2399C52.4894 33.7778 51.5807 33.2527 50.5918 33.2976C49.5629 33.3437 48.4394 34.2605 47.8436 34.8195C47.7903 34.8692 47.8291 34.959 47.9031 34.9541C48.5462 34.9092 49.1043 34.9068 49.6903 34.9238C49.791 34.9262 49.7922 35.0766 49.6903 35.079L49.6915 35.0778Z" fill="#DFE5E8"/>
<path d="M50.2545 29.7321C49.6794 29.7479 49.1395 29.7273 48.4697 29.669C48.3969 29.663 48.3557 29.7515 48.4078 29.8024C48.9441 30.3239 50.0628 31.3959 51.3089 31.3413C52.2856 31.2977 53.1337 30.7435 53.6918 30.2645C54.1177 29.8995 54.0971 29.2361 53.6518 28.8942C53.0524 28.4321 52.1437 27.907 51.1548 27.9519C50.1259 27.998 49.0024 28.9148 48.4066 29.4738C48.3532 29.5235 48.3921 29.6133 48.4661 29.6084C49.1091 29.5635 49.6673 29.5611 50.2533 29.5781C50.354 29.5805 50.3552 29.7309 50.2533 29.7333L50.2545 29.7321Z" fill="#DFE5E8"/>
<path d="M27.0206 56.0154V30.1007L33.2632 23.8615H37.4297L41.4179 19.8755L41.8595 20.688L37.9126 24.6328H33.8055L28.0811 30.3541V55.6431L30.7261 58.2867L30.7382 60.7157C30.902 60.883 30.9858 61.1292 30.9251 61.3923C30.8644 61.6555 30.6448 61.8762 30.3742 61.9332C29.9035 62.0326 29.4873 61.6761 29.4873 61.2226C29.4873 60.9994 29.588 60.8006 29.7457 60.6672V58.739L27.0194 56.0142L27.0206 56.0154Z" fill="#DFE5E8"/>
<path d="M43.7729 16.7518C43.3398 16.8318 42.994 17.1835 42.92 17.6176C42.8763 17.8699 42.9224 18.11 43.0304 18.3113L41.3802 19.912L41.8583 20.6881L43.6358 18.9322C43.7474 18.8267 43.7948 18.8764 43.9852 18.88C44.3614 18.8873 44.7205 18.7151 44.8989 18.384C45.3794 17.4903 44.6477 16.5905 43.7729 16.7518Z" fill="#DFE5E8"/>
<path d="M43.2172 11.6949C42.8205 12.1109 42.4225 12.4759 41.9056 12.9064C41.8498 12.9537 41.8826 13.0446 41.9554 13.0446C42.704 13.0385 44.2534 13.0107 45.0991 12.0951C45.7615 11.3772 45.9739 10.3852 46.0321 9.654C46.077 9.09496 45.5953 8.639 45.0384 8.70933C44.2874 8.80392 43.273 9.06949 42.6021 9.7983C41.9044 10.555 41.7527 11.9969 41.7224 12.813C41.72 12.8858 41.811 12.9221 41.8595 12.8664C42.2842 12.3813 42.6785 11.9872 43.1068 11.5858C43.1808 11.5167 43.2864 11.6234 43.2172 11.6961V11.6949Z" fill="#DFE5E8"/>
<path d="M41.6217 42.3437C41.3148 41.8574 41.0563 41.3833 40.7651 40.7782C40.7336 40.7127 40.6365 40.7224 40.6195 40.7927C40.4436 41.5191 40.0942 43.0289 40.7773 44.0706C41.3135 44.8867 42.2235 45.3341 42.92 45.5682C43.4514 45.7477 44.0108 45.3911 44.0787 44.8345C44.1697 44.0827 44.1576 43.0349 43.6152 42.2079C43.0498 41.3481 41.6885 40.8497 40.9034 40.6229C40.8331 40.6023 40.7761 40.6824 40.8185 40.743C41.1862 41.2717 41.4725 41.7507 41.7576 42.2637C41.8062 42.3522 41.6775 42.4286 41.6242 42.3437H41.6217Z" fill="#DFE5E8"/>
<path d="M31.0573 20.842L26.8993 24.9978L26.8131 25.0839L26.7197 24.9905L22.6187 20.8917C22.558 20.8311 22.4877 20.7935 22.4149 20.7741V20.7583L22.0048 21.6096L26.2708 25.8733L26.3072 25.9606V27.9894C26.3072 28.2417 26.511 28.4454 26.7634 28.4454C26.8702 28.4454 26.9672 28.4066 27.0449 28.346C27.1966 28.2732 27.3021 28.1204 27.3021 27.9409V25.9546C27.3179 25.9327 27.3337 25.9121 27.3531 25.8927L31.6786 21.5696L31.0561 20.8408L31.0573 20.842Z" fill="#DFE5E8"/>
<path d="M34.7203 30.3241C35.6015 30.3241 36.3158 29.6101 36.3158 28.7294C36.3158 27.8487 35.6015 27.1348 34.7203 27.1348C33.8392 27.1348 33.1248 27.8487 33.1248 28.7294C33.1248 29.6101 33.8392 30.3241 34.7203 30.3241Z" stroke="#DFE5E8" stroke-width="2" stroke-miterlimit="10"/>
<path d="M36.2568 28.3918L38.8654 27.0981L38.5418 26.4464L35.9333 27.74L36.2568 28.3918Z" fill="#DFE5E8"/>
<path d="M40.0468 27.7977C40.928 27.7977 41.6423 27.0838 41.6423 26.2031C41.6423 25.3224 40.928 24.6084 40.0468 24.6084C39.1656 24.6084 38.4513 25.3224 38.4513 26.2031C38.4513 27.0838 39.1656 27.7977 40.0468 27.7977Z" stroke="#DFE5E8" stroke-width="2" stroke-miterlimit="10"/>
<path d="M41.7972 25.6847L43.6886 24.5933L43.3246 23.9631L41.4332 25.0545L41.7972 25.6847Z" fill="#DFE5E8"/>
<path d="M44.1709 24.6109C44.5944 24.6109 44.9377 24.2678 44.9377 23.8445C44.9377 23.4213 44.5944 23.0781 44.1709 23.0781C43.7474 23.0781 43.4041 23.4213 43.4041 23.8445C43.4041 24.2678 43.7474 24.6109 44.1709 24.6109Z" stroke="#DFE5E8" stroke-width="2" stroke-miterlimit="10" stroke-linecap="round"/>
<path d="M38.4671 18.9857L37.6372 19.8151L37.7658 19.9437L35.0589 22.6491L34.5444 22.1349L37.2513 19.4295L37.38 19.558L38.2099 18.7286C37.909 18.2993 37.9636 17.6881 38.3664 17.2867C38.8153 16.838 39.5239 16.821 39.951 17.2467C40.3769 17.6723 40.3599 18.3817 39.9109 18.8304C39.5093 19.2318 38.8978 19.2876 38.4683 18.9869L38.4671 18.9857Z" fill="#DFE5E8" stroke="#DFE5E8" stroke-linecap="square" stroke-linejoin="bevel"/>
<path d="M10.1773 11.6949C10.5741 12.1109 10.972 12.4759 11.4889 12.9064C11.5447 12.9537 11.512 13.0446 11.4392 13.0446C10.6905 13.0385 9.14113 13.0107 8.29545 12.0951C7.63297 11.3772 7.42064 10.3852 7.3624 9.654C7.31751 9.09496 7.7992 8.639 8.35611 8.70933C9.10716 8.80392 10.1215 9.06949 10.7925 9.7983C11.4901 10.555 11.6418 11.9969 11.6721 12.813C11.6745 12.8858 11.5835 12.9221 11.535 12.8664C11.1103 12.3813 10.716 11.9872 10.2877 11.5858C10.2137 11.5167 10.1081 11.6234 10.1773 11.6961V11.6949Z" fill="#DFE5E8"/>
<path d="M19.3682 12.5073C19.3185 14.239 19.3779 15.716 19.3803 17.6527L22.9985 21.2543L22.376 21.9831L18.4121 17.934V12.5085C18.6038 12.5049 19.1765 12.511 19.3682 12.5085V12.5073Z" fill="#DFE5E8"/>
<path d="M31.6142 15.7791C31.9258 15.7791 32.1784 15.5267 32.1784 15.2153C32.1784 14.9038 31.9258 14.6514 31.6142 14.6514C31.3026 14.6514 31.05 14.9038 31.05 15.2153C31.05 15.5267 31.3026 15.7791 31.6142 15.7791Z" stroke="#DFE5E8" stroke-width="2" stroke-miterlimit="10"/>
<path d="M36.294 42.3437C35.9871 41.8574 35.7286 41.3833 35.4374 40.7782C35.4059 40.7127 35.3088 40.7224 35.2918 40.7927C35.1159 41.5191 34.7665 43.0289 35.4496 44.0706C35.9859 44.8867 36.8958 45.3341 37.5923 45.5682C38.1237 45.7477 38.6831 45.3911 38.751 44.8345C38.842 44.0827 38.8299 43.0349 38.2875 42.2079C37.7221 41.3481 36.3608 40.8497 35.5757 40.6229C35.5054 40.6023 35.4484 40.6824 35.4908 40.743C35.8585 41.2717 36.1448 41.7507 36.4299 42.2637C36.4785 42.3522 36.3498 42.4286 36.2965 42.3437H36.294Z" fill="#DFE5E8"/>
<path d="M24.7857 35.7145L21.3156 32.2462C21.2404 32.1711 21.1373 32.1286 21.0305 32.1286H17.9135C17.8067 32.1286 17.7048 32.0862 17.6283 32.011L14.7455 29.1297C14.6703 29.0545 14.5671 29.0121 14.4604 29.0121H10.0366C9.92983 29.0121 9.82791 28.9696 9.75147 28.8944L5.21002 24.3554C5.13479 24.2802 5.03166 24.2378 4.92489 24.2378H2.45093C2.09785 24.2378 1.99957 24.4112 1.99957 24.6465C1.99957 24.8114 2.00928 24.986 2.07601 25.06C2.16094 25.1534 2.2847 25.1994 2.41089 25.1994H4.40559C4.51236 25.1994 4.61428 25.2419 4.69072 25.3171L9.32196 29.9458C9.39718 30.021 9.50031 30.0634 9.60709 30.0634H14.0782C14.1801 30.0634 14.2796 30.1022 14.3536 30.1726L17.2037 32.8453C17.2789 32.9156 17.3772 32.9544 17.4791 32.9544H20.607C20.7138 32.9544 20.8157 32.9969 20.8922 33.0721L23.7944 35.9728C23.8697 36.048 23.9121 36.151 23.9121 36.2577V38.4878C23.9121 38.8468 23.479 39.0263 23.2242 38.7728L22.501 38.0501C22.4258 37.9749 22.3227 37.9324 22.2159 37.9324H19.1802C19.0698 37.9324 18.9642 37.8876 18.8878 37.8063C17.9292 36.7962 16.9719 35.786 16.0134 34.7759C15.8654 34.6206 15.6215 34.6073 15.4589 34.7468L15.4201 34.7807C15.2454 34.9299 15.232 35.1954 15.3886 35.3628C15.9709 35.9813 16.5546 36.5985 17.1369 37.217C17.3784 37.4728 18.4449 38.8807 18.8793 38.8407H21.9029C22.0096 38.8407 22.1116 38.8832 22.188 38.9584L23.7762 40.5457C23.8515 40.6209 23.8939 40.724 23.8939 40.8307V53.0326C23.8939 53.149 23.8442 53.2593 23.7568 53.3357L17.0265 59.2257C16.9392 59.302 16.8894 59.4124 16.8894 59.5288V60.7015C16.6929 60.8555 16.5776 61.1065 16.6176 61.383C16.6638 61.7031 16.9295 61.9602 17.251 61.9966C17.6914 62.0475 18.0651 61.7043 18.0651 61.2738C18.0651 61.024 17.939 60.8045 17.7472 60.6736L17.7448 59.9363C17.7448 59.8199 17.7946 59.7083 17.8831 59.6319L24.7627 53.6268C24.85 53.5504 24.901 53.44 24.901 53.3236V36.0019C24.901 35.8952 24.8585 35.7933 24.7833 35.7169L24.7857 35.7145Z" fill="#DFE5E8"/>
<path d="M12.4741 42.3256C12.7811 41.8394 13.0396 41.3652 13.3307 40.7601C13.3623 40.6946 13.4594 40.7043 13.4763 40.7746C13.6523 41.501 14.0017 43.0108 13.3186 44.0525C12.7823 44.8686 11.8723 45.3161 11.1759 45.5501C10.6445 45.7296 10.0851 45.3731 10.0172 44.8165C9.92617 44.0646 9.93831 43.0169 10.4807 42.1898C11.0461 41.33 12.4074 40.8316 13.1924 40.6049C13.2628 40.5843 13.3198 40.6643 13.2774 40.7249C12.9097 41.2536 12.6234 41.7327 12.3383 42.2456C12.2897 42.3341 12.4183 42.4105 12.4717 42.3256H12.4741Z" fill="#DFE5E8"/>
<path d="M17.8018 42.3256C18.1088 41.8394 18.3672 41.3652 18.6584 40.7601C18.69 40.6946 18.7871 40.7043 18.804 40.7746C18.98 41.501 19.3294 43.0108 18.6463 44.0525C18.11 44.8686 17.2 45.3161 16.5036 45.5501C15.9722 45.7296 15.4128 45.3731 15.3449 44.8165C15.2539 44.0646 15.266 43.0169 15.8084 42.1898C16.3738 41.33 17.7351 40.8316 18.5201 40.6049C18.5905 40.5843 18.6475 40.6643 18.6051 40.7249C18.2374 41.2536 17.9511 41.7327 17.666 42.2456C17.6174 42.3341 17.746 42.4105 17.7994 42.3256H17.8018Z" fill="#DFE5E8"/>
<path d="M14.0211 33.4708L13.8804 34.3694C12.7326 34.1826 12.9631 34.2263 11.8153 34.0395C11.1468 33.9195 10.4782 33.8006 9.80969 33.6806C9.74659 33.7691 9.6289 33.8879 9.44569 33.9655C9.08048 34.122 8.6449 34.0019 8.40587 33.6842C8.07585 33.2452 8.22145 32.6171 8.7177 32.3697C8.97249 32.2423 9.28068 32.2593 9.53062 32.3964C9.73567 32.5079 9.85215 32.6619 9.9201 32.8293L14.0211 33.4708Z" fill="#DFE5E8"/>
<path d="M4.53541 35.3551C5.11053 35.3709 5.65045 35.3503 6.32021 35.2921C6.393 35.286 6.43426 35.3746 6.38208 35.4255C5.8458 35.9469 4.72712 37.0189 3.48104 36.9644C2.50432 36.9207 1.65621 36.3665 1.09808 35.8875C0.672203 35.5225 0.692829 34.8592 1.13812 34.5172C1.7375 34.0552 2.64627 33.5301 3.63513 33.575C4.66402 33.621 5.78756 34.5378 6.3833 35.0969C6.43668 35.1466 6.39786 35.2363 6.32384 35.2315C5.68079 35.1866 5.12266 35.1842 4.53663 35.2011C4.43592 35.2036 4.43471 35.3539 4.53663 35.3564L4.53541 35.3551Z" fill="#DFE5E8"/>
<path d="M3.97242 30.0099C4.54754 30.0257 5.08746 30.0051 5.75722 29.9469C5.83002 29.9408 5.87127 30.0293 5.8191 30.0803C5.28281 30.6017 4.16413 31.6737 2.91805 31.6191C1.94133 31.5755 1.09322 31.0213 0.53509 30.5423C0.109215 30.1773 0.129841 29.514 0.575129 29.172C1.17451 28.71 2.08329 28.1849 3.07214 28.2297C4.10104 28.2758 5.22457 29.1926 5.82031 29.7516C5.8737 29.8014 5.83487 29.8911 5.76086 29.8862C5.1178 29.8414 4.55967 29.8389 3.97364 29.8559C3.87293 29.8584 3.87172 30.0087 3.97364 30.0111L3.97242 30.0099Z" fill="#DFE5E8"/>
<path d="M49.08 19.5398C48.5971 19.8527 48.1251 20.1146 47.5221 20.4129C47.4566 20.4456 47.4675 20.5427 47.5391 20.5584C48.2683 20.7258 49.7813 21.0605 50.8175 20.3668C51.6292 19.8223 52.066 18.908 52.2941 18.2095C52.4676 17.6759 52.106 17.1205 51.5479 17.0587C50.7956 16.975 49.7461 16.998 48.9247 17.5498C48.0705 18.1234 47.5864 19.4901 47.3668 20.2771C47.3474 20.3474 47.4275 20.4032 47.4869 20.3608C48.0123 19.9885 48.4891 19.6962 48.9987 19.4064C49.0861 19.3567 49.1649 19.484 49.08 19.5386V19.5398Z" fill="#DFE5E8"/>
</g>
<defs>
<clipPath id="clip0_334_9">
<rect width="54" height="62" fill="white"/>
</clipPath>
</defs>
</svg>
